<?xml version="1.0" encoding="utf-8"?>
<!-- Generator: Adobe Illustrator 24.3.0, SVG Export Plug-In . SVG Version: 6.00 Build 0)  -->
<svg version="1.1" id="Calque_1" xmlns="http://www.w3.org/2000/svg" xmlns:xlink="http://www.w3.org/1999/xlink" x="0px" y="0px"
	 viewBox="0 0 1472.16 869.28" style="enable-background:new 0 0 1472.16 869.28;" xml:space="preserve">
<g>
	<path d="M-735.24-339.13c490.24,0,980.48,0,1470.72,0c0,289.92,0,579.84,0,869.76c-489.92,0-979.84,0-1469.76,0
		c-1.26-2.53-1.2-5.26-1.2-7.99c0.02-14.87,0.06-29.75,0.06-44.62c0-270.47-0.01-540.93-0.01-811.4
		C-735.43-335.3-735.3-337.22-735.24-339.13z M-414.6,215.74c-0.11,2.59,0.5,4.24,0.89,5.93c1.43,6.24,2.69,12.5,3.12,18.92
		c0.51,7.6-0.87,14.95-2.46,22.33c-2.51,11.68-7.96,21.87-15.11,31.27c-3.52,4.62-7.75,8.53-12.48,11.86
		c-3.53,2.49-7.18,4.81-10.85,7.07c-6.06,3.74-12.63,6.23-19.64,7.43c-6.78,1.17-13.61,1.97-20.51,1.98c-0.96,0-1.92,0.02-2.88,0.01
		c-2.25-0.01-3.55,1.18-4.14,3.27c-0.35,1.23-0.67,2.47-1.05,3.69c-0.38,1.22-0.72,2.47-1.22,3.64c-1.35,3.16-2.9,4.06-6.4,3.74
		c-1.11-0.1-2.2-0.38-3.3-0.61c-1.57-0.33-3.11-0.81-4.69-1c-11.62-1.45-22.96-4.24-34.3-7.02c-16.94-4.16-33.82-8.49-50.29-14.3
		c-13.6-4.8-26.86-10.39-39.62-17.1c-1.41-0.74-2.79-1.57-4.06-2.52c-1.17-0.88-1.26-2.37-0.16-3.34c1.68-1.47,3.46-2.84,5.3-4.11
		c11.71-8.09,23.43-16.19,35.2-24.21c8.06-5.49,16.25-10.78,24.3-16.29c9.24-6.33,18.36-12.83,27.57-19.2
		c30.11-20.86,60.27-41.67,90.35-62.57c9.98-6.94,20.29-13.39,30.06-20.65c5.13-3.81,10.46-7.39,15.89-10.76
		c6.81-4.23,13.06-9.24,19.7-13.69c1.04-0.7,1.94-1.66,2.78-2.6c0.56-0.63,0.63-1.51,0.18-2.25c-1.23-2.01-3.13-3.17-5.32-3.84
		c-1.73-0.52-3.12,0.43-4.38,1.43c-7.16,5.67-15.25,9.97-22.49,15.53c-5.32,4.09-11.13,7.52-16.58,11.44
		c-12.73,9.16-26,17.52-38.74,26.67c-11.56,8.31-23.68,15.84-35.15,24.26c-12.12,8.89-25.39,16.11-36.98,25.74
		c-0.24,0.2-0.52,0.38-0.8,0.54c-5.32,2.99-10.05,6.83-15.07,10.25c-3.57,2.43-7.21,4.76-10.78,7.18
		c-5.02,3.4-9.99,6.88-15.03,10.26c-4.78,3.2-9.71,6.19-14.41,9.51c-6.01,4.25-11.72,8.92-17.79,13.06
		c-8.19,5.59-16.53,10.94-24.52,16.82c-1.16,0.85-2.38,1.63-3.54,2.47c-1.9,1.37-3.07,3.16-3.4,5.55
		c-0.62,4.46-1.93,8.74-3.55,12.93c-0.46,1.19-0.77,2.44-1.08,3.68c-2.2,8.93-5.89,17.2-10.48,25.16
		c-7.01,12.13-16.04,22.3-27.77,30c-3.47,2.28-7.08,4.36-10.64,6.51c-1.51,0.91-3.09,1.7-4.55,2.68c-2.26,1.51-2.61,2.74-1.43,5.3
		c1.13,2.47,2.55,4.82,3.59,7.32c1.25,3,3.44,4.49,6.56,4.84c0.64,0.07,1.27,0.15,1.9,0.24c11.1,1.42,22.21,2.81,33.31,4.27
		c15.85,2.09,31.7,4.23,47.55,6.37c13.15,1.78,26.31,3.56,39.45,5.42c8.87,1.26,17.69,2.83,26.58,3.96
		c14.12,1.8,28.28,3.26,42.4,5.03c13.49,1.69,26.95,3.57,40.42,5.4c12.2,1.65,24.4,3.34,36.6,5.01c15.69,2.16,31.37,4.32,47.06,6.48
		c7.61,1.04,15.21,2.13,22.82,3.09c9.67,1.22,19.37,2.18,29.03,3.5c11.08,1.51,22.11,3.42,33.23,4.74
		c13.66,1.62,27.29,3.49,40.93,5.25c13.48,1.74,26.97,3.47,40.44,5.24c13.48,1.77,26.95,3.59,40.42,5.39
		c15.38,2.06,30.75,4.11,46.13,6.18c15.53,2.1,31.06,4.24,46.59,6.34c13.31,1.8,26.63,3.57,39.94,5.36
		c12.36,1.66,24.73,3.32,37.09,4.97c2.4,0.32,4.77,0.34,7.09-0.6c3.54-1.43,7.19-1.34,10.87-0.64c1.73,0.33,3.46,0.67,5.18,1
		c3.03,0.58,6.02,0.55,9.04-0.19c4.98-1.23,10.03-1.98,15.15-2.4c3.98-0.32,7.95-0.85,11.92-1.35c8.73-1.1,17.45-2.22,26.17-3.35
		c11.1-1.44,22.2-2.91,33.3-4.36c10.62-1.39,21.25-2.78,31.88-4.16c13.96-1.8,27.92-3.58,41.88-5.37
		c10.95-1.41,21.89-2.81,32.83-4.24c13.64-1.78,27.28-3.56,40.91-5.37c8.09-1.07,16.15-2.3,24.25-3.27
		c13.33-1.6,26.74-2.67,39.96-5.11c1.1-0.2,2.21-0.39,3.32-0.54c13.79-1.79,27.59-3.6,41.39-5.36c3.33-0.43,6.69-0.64,10.01-1.08
		c13-1.72,25.99-3.52,38.99-5.23c13.16-1.73,26.33-3.39,39.5-5.09c14.27-1.84,28.55-3.68,42.82-5.56
		c11.1-1.46,22.19-2.96,33.29-4.44c7.77-1.04,15.53-2.11,23.31-3.09c11.42-1.44,22.86-2.76,34.28-4.23
		c15.86-2.04,31.71-4.2,47.57-6.26c18.56-2.4,37.12-4.73,55.68-7.12c3.8-0.49,7.6-1.07,11.38-1.69c3.2-0.53,5.62-2.31,7.2-5.1
		c1.26-2.22,2.41-4.53,3.36-6.89c1.29-3.22,0.75-4.68-2.18-6.37c-2.08-1.2-4.27-2.19-6.37-3.36c-14.34-8.01-25.6-19.01-33.03-33.8
		c-3.61-7.18-6.37-14.66-8.35-22.44c-1.33-5.27-2.9-10.49-4.09-15.79c-0.83-3.67-2.72-6.24-5.85-8.32
		c-10.13-6.73-20.15-13.61-30.16-20.51c-14.23-9.79-28.39-19.68-42.62-29.46c-10.81-7.42-21.7-14.73-32.56-22.09
		c-0.66-0.45-1.31-0.91-1.97-1.37c-9.16-6.43-18.28-12.92-27.5-19.27c-9.35-6.44-18.84-12.69-28.2-19.13
		c-15.15-10.44-30.21-21-45.35-31.45c-11.32-7.82-22.71-15.53-34.06-23.31c-4.88-3.35-9.79-6.66-14.58-10.14
		c-2.87-2.08-5.52-2.17-8.26,0.08c-0.62,0.51-1.31,0.92-1.9,1.46c-1.72,1.55-1.68,3.01,0.18,4.33c2.87,2.03,5.79,4,8.69,5.99
		c17.81,12.21,35.65,24.39,53.42,36.65c6.58,4.54,13,9.33,19.56,13.9c4.85,3.38,9.83,6.56,14.71,9.9
		c7.92,5.42,15.8,10.9,23.71,16.34c3.95,2.72,7.97,5.35,11.9,8.11c11.91,8.37,23.64,16.99,35.76,25.06
		c8.65,5.76,17.35,11.46,25.6,17.82c4.3,3.32,8.78,6.41,13.61,8.98c2.11,1.12,4.06,2.56,6.03,3.92c6.71,4.64,13.4,9.32,20.09,13.97
		c7.62,5.3,15.26,10.56,22.85,15.9c4.06,2.86,3.99,3.72-0.34,6.2c-9.33,5.33-19.04,9.84-29.05,13.72
		c-15.24,5.91-30.91,10.47-46.7,14.59c-26.34,6.87-53.05,11.89-80.02,15.55c-12.04,1.63-24.01,3.77-36.13,4.82
		c-15.29,1.33-30.54,3.05-45.81,4.59c-8.75,0.88-17.5,1.75-26.25,2.62c-6.52,0.65-13.04,1.61-19.58,1.86
		c-10.73,0.4-21.34,1.94-32.03,2.67c-3.51,0.24-7.03,0.33-10.54,0.62c-9.4,0.79-18.78,1.97-28.19,2.41
		c-9.45,0.44-18.79,1.74-28.17,2.67c-7.64,0.76-15.27,1.63-22.91,2.35c-5.57,0.52-11.16,0.88-16.68,1.84
		c-2.52,0.44-5.06,0.75-7.6,1.04c-9.85,1.15-19.7,2.22-29.55,3.4c-12.08,1.44-24.03,3.65-35.97,5.93
		c-7.22,1.38-14.38,3.1-21.57,4.65c-3.75,0.81-7.56,1.38-11.25,2.42c-8.93,2.5-17.89,4.86-26.7,7.8
		c-7.14,2.38-14.25,4.78-21.18,7.67c-4.57,1.91-9.12,3.95-13.43,6.36c-9.93,5.55-19.46,11.72-28.35,18.85
		c-0.87,0.7-1.78,1.35-2.72,1.95c-0.69,0.44-1.69,0.01-1.9-0.84c-0.26-1.08-0.45-2.19-0.56-3.3c-0.33-3.34-0.62-6.69-0.9-10.03
		c-0.39-4.78-0.91-9.56-1.07-14.35c-0.16-4.64-0.44-9.25-1.15-13.85c-0.48-3.15-0.64-6.36-0.91-9.55
		c-0.41-4.78-0.78-9.56-1.19-14.34c-0.57-6.53-1.27-13.04-1.69-19.58c-0.23-3.67-0.36-7.34-0.92-10.99
		c-0.66-4.27-0.86-8.58-1.06-12.9c-0.25-5.43-0.73-10.85-1.21-16.27c-0.73-8.28-1.55-16.56-2.32-24.84
		c-0.07-0.79-0.11-1.6-0.05-2.39c0.15-2.12,1.09-3.24,3.17-3.6c1.25-0.22,2.55-0.3,3.82-0.27c14.73,0.36,29.41-0.82,44.11-1.25
		c6.87-0.2,13.74-0.61,20.6-1.12c9.89-0.74,19.75-1.69,29.63-2.52c9.57-0.8,19.09-2.01,28.57-3.48c16.28-2.53,32.52-5.29,48.78-7.95
		c1.74-0.28,3.47-0.62,5.22-0.75c2.72-0.2,4.13,0.87,4.94,3.52c0.14,0.46,0.23,0.93,0.32,1.41c1.04,5.82,2.05,11.65,3.13,17.47
		c0.35,1.88,0.83,3.74,1.3,5.6c0.07,0.26,0.37,0.56,0.63,0.64c0.52,0.17,0.92-0.18,1.12-0.61c0.55-1.15,1.05-2.33,1.57-3.5
		c1.56-3.52,3.35-6.92,5.63-10.03c7.34-10,16.74-16.04,29.63-15.65c8.95,0.27,17.91-0.01,26.87,0.47
		c6.86,0.36,13.74,0.18,20.62-0.21c6.7-0.37,13.43-0.17,20.15-0.24c1.76-0.02,3.53,0.02,5.27-0.18c2.23-0.25,3.27-1.26,3.35-3.36
		c0.17-4.47,0.76-8.9,0.76-13.39c-0.06-73.44-0.04-146.88-0.03-220.31c0.01-99.2,0.02-198.39,0.03-297.59
		c0-2.08-0.07-4.16-0.04-6.24c0.03-2.53-1.06-4.27-3.39-5.26c-0.73-0.31-1.43-0.72-2.14-1.08c-6.52-3.21-12.33-7.4-17.41-12.61
		c-0.67-0.69-1.34-1.37-2.05-2.02c-0.57-0.53-1.16-1.24-2.05-0.77c-0.62,0.32-0.7,1.03-0.72,1.67c-0.04,2.08-0.08,4.16-0.08,6.24
		c-0.01,172.64-0.02,345.27-0.03,517.91c0,0.96,0.04,1.92-0.03,2.88c-0.25,3.21-1.12,4.1-4.39,4.6c-5.75,0.89-11.5,0.03-17.24-0.16
		c-1.89-0.06-2.93-1.14-3.16-3.03c-0.25-2.06-0.25-4.15-0.25-6.22c-0.01-24,0.01-48,0.01-72c0-1.28,0.01-2.57-0.11-3.84
		c-0.26-2.67-1.27-3.67-3.92-3.93c-1.11-0.11-2.24-0.08-3.36-0.08c-4.32-0.01-8.64-0.01-12.96,0c-6.71,0-7.29,0.58-7.3,7.48
		c-0.01,11.2,0.02,22.4,0.02,33.6c0,1.44,0.04,2.89-0.1,4.32c-0.31,3.2-1.59,4.52-4.82,4.95c-3.05,0.4-6.07,0.01-9.04-0.7
		c-1.99-0.47-3.46-1.7-4.31-3.53c-0.81-1.73-1.51-3.53-2.1-5.35c-6.38-19.5-14.11-38.41-23.97-56.45
		c-6.54-11.96-13.77-23.43-22.13-34.19c-0.29-0.38-0.6-0.75-0.85-1.16c-1.57-2.52-1.31-4.33,1.05-6.29c1.1-0.92,2.33-1.69,3.53-2.48
		c6.83-4.46,13.68-8.89,20.52-13.35c17.82-11.63,35.63-23.27,53.44-34.92c1.47-0.96,2.93-1.96,4.27-3.08
		c1.14-0.95,1.22-2.26,0.44-3.44c-0.79-1.2-2.03-1.72-3.31-1.12c-1.58,0.75-3.09,1.66-4.57,2.62
		c-25.38,16.43-50.75,32.89-76.13,49.33c-5.63,3.65-7.12,3.45-11.93-1.51c-7.24-7.47-14.43-14.98-22.54-21.54
		c-7.46-6.04-14.62-12.46-23.05-17.19c-0.7-0.39-1.36-0.85-2.01-1.31c-3.95-2.8-4.39-4.48-2.15-8.91c0.93-1.85,2.04-3.62,3.1-5.42
		c9.56-16.27,19.84-32.13,28.76-48.78c1.06-1.97,2.22-3.9,3.49-5.74c5.46-7.91,9.7-16.56,14.86-24.65c0.69-1.07,1.24-2.24,1.77-3.4
		c0.26-0.57,0.43-1.21,0.49-1.84c0.11-1.24-0.46-2.16-1.55-2.74c-1.01-0.55-2.31-0.45-3.09,0.45c-0.93,1.08-1.79,2.26-2.49,3.5
		c-4.16,7.38-9.12,14.31-12.67,22.04c-0.26,0.57-0.64,1.12-1.05,1.6c-1.98,2.34-3.4,5.03-5,7.61c-3.79,6.11-6.76,12.7-10.93,18.59
		c-0.28,0.39-0.47,0.83-0.7,1.26c-6.37,11.66-13.21,23.04-20.13,34.37c-3.12,5.1-3.98,5.35-9.13,2.38
		c-9.43-5.43-19.09-10.44-28.78-15.37C50.28,5.54,43.75,2.15,37.27-1.34c-9.64-5.19-18.44-11.45-25.8-19.7
		C6.34-26.79,3.65-33.17,3.7-41.01c0.18-26.4,0.07-52.8,0.07-79.2c0-1.92,0.02-3.84-0.06-5.76c-0.05-1.11-0.18-2.24-0.44-3.31
		c-0.24-0.97-0.89-1.7-1.95-1.9c-1-0.18-2.17,0.49-2.74,1.55c-0.88,1.63-0.91,3.37-0.72,5.14c0.38,3.52,0.21,7.02-0.12,10.54
		c-0.45,4.79-0.41,9.6-0.07,14.39c0.68,9.59,0.69,19.17,0,28.76c-0.19,2.71-0.33,5.46-0.05,8.15C-1.54-54.8-1.91-47-2.49-39.17
		c-0.23,3.15-1.19,5.91-3.05,8.43c-2.47,3.34-4.87,6.74-7.37,10.06c-0.66,0.88-1.55,1.6-2.4,2.31c-1.11,0.91-2.35,1.67-3.43,2.61
		c-5.94,5.2-12.57,9.36-19.51,13.04C-53.95,5.6-69.69,13.83-85.41,22.09c-0.85,0.45-1.71,0.87-2.6,1.23
		c-1.67,0.68-3.17,0.35-4.3-1.07c-0.79-1-1.49-2.08-2.15-3.17c-2.07-3.42-4.1-6.87-6.16-10.3c-12.09-20.17-24.17-40.35-36.29-60.51
		c-5.11-8.5-10.29-16.95-15.47-25.4c-1.59-2.59-3.21-5.16-4.97-7.63c-0.97-1.37-2.51-1.35-3.78-0.25c-1.42,1.22-1.86,2.58-1.22,4.28
		c0.39,1.04,0.91,2.05,1.52,2.99c3.22,4.96,5.77,10.35,9.57,14.94c0.6,0.73,1.03,1.62,1.42,2.49c1.89,4.26,4.37,8.17,6.97,12.02
		c2.15,3.18,4.29,6.37,6.29,9.65c7.65,12.57,15.26,25.17,22.86,37.77c5.04,8.36,10.04,16.73,15.06,25.1
		c0.33,0.55,0.68,1.09,0.93,1.68c0.59,1.36,0.36,2.47-0.81,3.43c-0.86,0.71-1.84,1.27-2.75,1.93c-12.89,9.43-26.69,17.68-37.79,29.4
		c-0.11,0.12-0.23,0.22-0.36,0.32c-4.02,2.97-7.31,6.68-10.61,10.39c-3.92,4.39-4.67,4.49-9.61,1.16
		c-4.77-3.22-9.48-6.54-14.28-9.73c-3.99-2.66-8.18-5.02-12.08-7.81c-4.95-3.55-9.93-7.01-15.17-10.11c-1.92-1.14-3.8-2.37-5.6-3.7
		c-10.43-7.72-21.43-14.57-32.22-21.74c-0.79-0.53-1.64-1.01-2.51-1.38c-1.08-0.46-2.22-0.02-2.94,0.98
		c-1.07,1.48-1.04,3.09,0.29,4.33c1.04,0.97,2.24,1.8,3.44,2.6c23.56,15.71,47.14,31.4,70.71,47.09c2.26,1.51,4.63,2.87,6.82,4.47
		c3.56,2.6,3.81,4.6,1.2,8.01c-0.29,0.38-0.62,0.73-0.93,1.1c-5.25,6.26-10.05,12.85-14.13,19.94c-3.43,5.96-6.91,11.9-10.28,17.9
		c-1.64,2.93-3.27,5.89-4.55,8.98c-6.37,15.37-12.92,30.67-17.88,46.58c-0.52,1.68-1.18,3.31-1.88,4.92
		c-0.65,1.51-1.68,2.8-3.26,3.37c-3.98,1.44-8.08,1.91-12.25,0.92c-1.71-0.41-2.8-1.61-3.04-3.34c-0.22-1.57-0.26-3.19-0.26-4.78
		c-0.01-11.04,0.02-22.08,0.03-33.12c0-1.6,0.04-3.21-0.11-4.8c-0.24-2.63-1.3-3.81-3.96-3.86c-6.4-0.12-12.8-0.04-19.19-0.04
		c-0.16,0-0.32,0.02-0.48,0.05c-2,0.36-3.22,1.41-3.49,3.41c-0.23,1.73-0.22,3.51-0.22,5.26c-0.01,24.16,0,48.32,0,72.48
		c0,1.12,0.04,2.24-0.02,3.36c-0.17,3.3-0.92,4.07-4.25,4.66c-5.76,1.03-11.49,0.07-17.23-0.21c-1.71-0.08-2.59-1.05-2.8-2.77
		c-0.21-1.74-0.23-3.51-0.23-5.27c0.02-21.92,0.07-43.84,0.08-65.76c0.02-151.2,0.04-302.39,0.02-453.59c0-2.81,0.67-5.71-0.62-8.44
		c-3.07,1.15-4.2,4.11-5.89,6.49c-2.56,3.6-5.68,6.5-9.6,8.5c-3.13,1.6-5.96,3.73-9.3,4.97c-1.78,0.66-2.77,2.18-2.94,4.07
		c-0.17,1.91-0.23,3.83-0.23,5.75c-0.01,18.4,0.02,36.8,0.02,55.2c0,157.76,0,315.51,0,473.27c0,0.96-0.02,1.92,0.04,2.88
		c0.23,3.25,1.14,4.17,4.44,4.4c1.59,0.11,3.2,0.05,4.8,0.08c2.72,0.05,5.44,0.04,8.16,0.16c12.95,0.57,25.9,0.48,38.86,0.04
		c7.83-0.27,15.68-0.17,23.51-0.23c2.69-0.02,5.01,0.89,6.92,2.81c1.01,1.02,2.06,2.02,3.1,3.01c7.18,6.85,14.35,13.69,21.54,20.53
		c0.58,0.55,1.19,1.06,1.83,1.54c0.73,0.54,1.59,0.15,1.79-0.8c0.13-0.63,0.18-1.27,0.27-1.9c0.99-6.32,1.87-12.66,3-18.96
		c0.93-5.22,2.03-5.92,7.12-5.13c10.43,1.61,20.85,3.33,31.29,4.86c10.29,1.51,20.58,2.98,30.9,4.21
		c13.18,1.56,26.4,2.79,39.59,4.29c10.81,1.23,21.67,2.01,32.53,2.37c14.38,0.48,28.76,1.45,43.17,1.23
		c0.64-0.01,1.28,0.01,1.92,0.03c5.7,0.23,6.89,1.38,6.27,6.99c-1,9.06-1.6,18.17-3.2,27.16c-0.28,1.57-0.48,3.17-0.49,4.76
		c-0.02,4.34-0.69,8.6-1.34,12.87c-0.27,1.74-0.52,3.48-0.69,5.23c-1.2,12.1-2.28,24.2-3.59,36.29c-1.07,9.85-2.4,19.67-3.6,29.51
		c-0.16,1.27-0.26,2.55-0.4,3.82c-0.89,8.11-1.78,16.21-2.69,24.32c-0.12,1.11-0.28,2.23-0.58,3.3c-0.55,1.94-2.09,2.51-3.67,1.37
		c-0.9-0.65-1.73-1.42-2.51-2.22c-3.04-3.11-6.45-5.74-10.14-8.03c-5.03-3.12-10.09-6.19-15.15-9.26
		c-3.43-2.08-7.01-3.83-10.74-5.31c-2.38-0.94-4.68-2.07-6.99-3.17c-6.36-3.04-12.89-5.67-19.66-7.6
		c-14.16-4.02-28.37-7.84-42.56-11.75c-2.62-0.72-5.26-1.29-7.97-1.65c-3.48-0.46-6.98-1.01-10.38-1.9
		c-9.93-2.62-20.13-3.74-30.22-5.28c-9.62-1.48-19.21-3.27-28.93-4.25c-7.47-0.75-14.82-2.46-22.33-3.01
		c-7.17-0.53-14.32-1.39-21.48-2.11c-10.82-1.09-21.63-2.23-32.46-3.27c-10.02-0.97-20.06-1.79-30.09-2.79
		c-5.25-0.52-10.46-1.65-15.71-1.85c-8.97-0.33-17.77-2.33-26.75-2.33c-1.11,0-2.22-0.27-3.33-0.39c-7.47-0.8-14.94-1.63-22.41-2.37
		c-5.73-0.57-11.47-0.96-17.2-1.58c-5.88-0.63-11.73-1.79-17.62-2.1c-8.5-0.45-16.85-1.78-25.23-3.07c-1.1-0.17-2.19-0.45-3.25-0.81
		c-0.36-0.12-0.81-0.64-0.82-0.99c-0.01-0.38,0.34-0.93,0.69-1.15c1.22-0.76,2.51-1.41,3.76-2.11c13.64-7.68,26.02-16.9,35.63-29.45
		c5.27-6.88,10.34-13.99,13.37-22.11c3.28-8.8,7.08-17.54,7.79-27.12c0.02-0.32,0.1-0.63,0.18-0.94c0.61-2.47,1.78-3.57,4.32-3.74
		c2.07-0.14,4.16-0.06,6.24-0.06c11.36-0.02,22.72-0.33,34.07,0.43c1.42,0.09,2.88-0.07,4.29-0.33c2.5-0.46,3.15-1.35,3.09-4
		c-0.08-3.04-0.34-6.07-0.34-9.11c-0.02-57.12-0.02-114.24-0.01-171.36c0-1.92-0.03-3.84,0.09-5.76c0.87-13.43,0.25-26.87,0.39-40.3
		c0.01-1.11-0.07-2.25-0.28-3.34c-0.54-2.75-1.79-3.84-4.54-4.07c-0.95-0.08-1.92-0.03-2.88-0.03c-4.48,0-8.96,0.01-13.44,0.02
		c-1.12,0-2.25-0.05-3.36,0.06c-2.37,0.23-3.5,1.24-3.77,3.58c-0.21,1.9-0.19,3.83-0.19,5.75c0.01,48.64,0.04,97.28,0.05,145.92
		c0,14.56-0.02,29.12-0.03,43.68c0,1.28,0.04,2.56-0.05,3.84c-0.27,3.88-1.53,5.13-5.3,5.34c-0.64,0.04-1.28,0-1.92,0.01
		c-3.2,0.02-6.41-0.08-9.6,0.08c-5.63,0.28-11.16-0.73-16.75-0.97c-1.78-0.08-3.45-0.71-5.01-1.55c-1.69-0.91-3.33-1.91-4.97-2.89
		C-406.32,220.69-410.14,218.4-414.6,215.74z M-720.55,395.53c-3.8-0.08-5.05,0.67-6.35,3.75c-1.19,2.8-2.28,5.63-3.41,8.46
		c-0.12,0.3-0.24,0.6-0.33,0.9c-0.8,2.63-0.09,4.04,2.53,4.62c1.87,0.41,3.79,0.62,5.68,0.9c2.37,0.34,4.79,0.48,7.11,1.03
		c8.43,1.98,17.1,2.39,25.61,3.8c8.35,1.38,16.81,2.18,25.22,3.23c22.85,2.84,45.49,7.14,68.35,9.94c7.78,0.95,15.54,2.06,23.3,3.15
		c15.2,2.12,30.41,4.22,45.6,6.43c8.7,1.26,17.29,3.27,26.05,4.13c18.31,1.79,36.43,4.93,54.64,7.42
		c14.42,1.97,28.81,4.15,43.21,6.21c14.88,2.12,29.77,4.22,44.65,6.3c10.45,1.46,20.91,2.87,31.37,4.34
		c10.45,1.47,20.9,2.95,31.34,4.48c13.13,1.92,26.25,3.97,39.39,5.82c13.46,1.9,26.94,3.6,40.41,5.46
		c14.73,2.03,29.46,4.13,44.18,6.24c16.62,2.38,33.23,4.83,49.85,7.21c14.56,2.09,29.13,4.12,43.7,6.18
		c14.88,2.1,29.77,4.2,44.66,6.29c8.55,1.2,17.11,2.35,25.66,3.6c2.12,0.31,4.14,0.47,5.98-0.86c1.07-0.77,2.07-0.61,3.09,0.1
		c1.55,1.08,3.25,1.15,5.06,0.82c1.57-0.28,3.17-0.4,4.76-0.63c23.59-3.39,47.17-6.82,70.76-10.15c24.07-3.4,48.15-6.68,72.23-10.04
		c22.65-3.17,45.3-6.32,67.93-9.58c28.8-4.14,57.59-8.38,86.39-12.55c8.23-1.19,16.48-2.26,24.72-3.36
		c8.87-1.19,17.81-2.03,26.62-3.59c11.35-2,22.76-3.49,34.16-5.09c21.85-3.08,43.73-5.99,65.58-9.07
		c18.84-2.66,37.65-5.51,56.49-8.19c18.52-2.63,37.07-5.1,55.6-7.73c19.16-2.72,38.29-5.59,57.45-8.31
		c12.98-1.84,25.98-3.56,38.98-5.3c6.02-0.81,12.07-1.45,18.07-2.35c9.48-1.42,18.94-3.02,28.41-4.5c4.11-0.64,8.24-1.14,12.34-1.81
		c2.38-0.39,3.35-1.87,2.55-4.18c-1.26-3.62-2.72-7.17-4.22-10.71c-0.83-1.97-2.5-2.88-4.62-2.78c-1.43,0.07-2.86,0.28-4.28,0.49
		c-18.2,2.64-36.39,5.32-54.6,7.91c-15.67,2.23-31.36,4.36-47.04,6.54c-9.98,1.39-19.96,2.75-29.94,4.17
		c-14.09,2.01-28.28,3.31-42.24,6.15c-1.25,0.25-2.52,0.43-3.79,0.6c-8.24,1.13-16.48,2.22-24.71,3.39
		c-16.78,2.37-33.56,4.8-50.35,7.18c-12.35,1.75-24.71,3.47-37.06,5.21c-12.51,1.77-25.01,3.58-37.53,5.31
		c-12.67,1.76-25.36,3.4-38.03,5.17c-16.79,2.35-33.57,4.77-50.35,7.18c-19.31,2.77-38.62,5.53-57.93,8.33
		c-16.3,2.36-32.59,4.78-48.9,7.11c-19.16,2.73-38.33,5.37-57.49,8.07c-21.7,3.05-43.39,6.12-65.08,9.18
		c-20.11,2.83-40.24,5.55-60.33,8.52c-8.15,1.21-16.18,1.48-24.33,0c-7.71-1.39-15.49-2.39-23.25-3.48
		c-15.68-2.2-31.37-4.32-47.05-6.51c-12.2-1.7-24.39-3.43-36.58-5.18c-16.46-2.36-32.92-4.76-49.38-7.14
		c-14.56-2.1-29.12-4.22-43.69-6.28c-15.04-2.13-30.09-4.19-45.14-6.32c-10.29-1.46-20.57-3-30.86-4.45
		c-7.76-1.1-15.54-2.05-23.29-3.18c-15.82-2.31-31.63-4.76-47.46-7.02c-15.2-2.17-30.43-4.12-45.63-6.26
		c-21.22-2.98-42.43-6.06-63.65-9.05c-20.27-2.86-40.55-5.61-60.82-8.49c-11.24-1.6-22.44-3.43-33.68-5.04
		c-26.91-3.86-53.83-7.64-80.75-11.46c-22.32-3.17-44.65-6.35-66.97-9.52C-714.95,396.26-717.96,395.88-720.55,395.53z
		 M333.4-264.64c-0.36,0-0.73,0-1.09,0c-0.02,2.06-0.06,4.11-0.06,6.17c0,92.77-0.01,185.54-0.01,278.31c0,76.62,0,153.23,0,229.85
		c0,2.08-0.03,4.16,0.14,6.23c0.2,2.5,1.11,3.42,3.65,3.54c3.19,0.15,6.4,0.09,9.59,0.09c1.44,0,2.89,0.03,4.31-0.11
		c2.24-0.22,3.06-1.08,3.26-3.38c0.14-1.59,0.12-3.2,0.12-4.79c0.03-61.58,0.07-123.16,0.09-184.74
		c0.01-14.56,0.05-29.11-0.08-43.67c-0.03-3.96,1.15-7.05,4.16-9.72c3.58-3.18,6.96-6.61,10.24-10.11
		c8.59-9.14,15.77-19.26,21.46-30.5c3.69-7.3,5.47-15.04,6.16-23.02c0.93-10.73,0.04-21.38-2.49-31.91
		c-3.73-15.52-9.85-30.09-17.49-44.01c-6.55-11.94-12.43-24.18-17.53-36.79c-6.38-15.76-11.04-32.05-14.24-48.75
		c-2.65-13.82-5.09-27.68-7.69-41.51C335.2-257.2,334.24-260.91,333.4-264.64z M-83.14-241.85c-0.03,0-0.05,0-0.08,0
		c0,5.44,0.01,10.88-0.01,16.32c0,1.12-0.04,2.24-0.15,3.35c-0.17,1.79-1.16,2.96-2.9,3.39c-1.24,0.31-2.5,0.55-3.76,0.74
		c-16.31,2.4-32.45,5.66-48.48,9.49c-7.93,1.9-15.83,3.96-23.75,5.9c-1.54,0.38-3.13,0.66-4.71,0.76c-1.41,0.09-2.49-0.8-2.71-2.21
		c-0.25-1.57-0.33-3.18-0.33-4.77c-0.01-9.44,0.03-18.88,0.04-28.31c0-1.44,0.05-2.89-0.08-4.32c-0.3-3.2-1.73-4.15-4.91-3.18
		c-1.68,0.51-3.29,1.24-4.91,1.93c-14.58,6.16-24.85,17.14-33.46,29.97c-0.53,0.79-0.87,1.71-1.28,2.57
		c-2.9,6.08-5.37,12.32-6.73,18.95c-0.61,2.99-1.98,5.25-4.86,6.68c-3,1.5-3.81,3.99-2.73,7.18c0.34,1.02,1.15,1.5,2.24,1.42
		c0.48-0.04,0.96-0.11,1.41-0.24c5.97-1.77,11.94-3.54,17.91-5.33c2.45-0.74,4.86-1.61,7.34-2.25c9.43-2.46,18.78-5.26,28.17-7.87
		c19.74-5.5,39.79-9.63,59.75-14.14c8.89-2.01,17.93-3.31,26.83-5.29c6.89-1.54,13.83-2.59,20.83-3.31
		c10.82-1.11,21.63-2.24,32.46-3.22c8.12-0.74,16.24-1.53,24.4-1.58c16.95-0.09,33.9-0.47,50.84,0.75
		c7.97,0.57,15.95,1.03,23.9,1.92c6.83,0.77,13.66,1.62,20.5,2.28c9.09,0.88,17.99,2.91,26.99,4.34c4.41,0.7,8.73,1.97,13.12,2.88
		c7.99,1.65,16.01,3.13,23.98,4.86c6.56,1.42,13.06,3.13,19.6,4.66c12.77,2.97,25.48,6.23,38.08,9.87
		c8.14,2.35,16.18,5.06,24.32,7.44c4.43,1.3,9.14,1.72,13.12,4.37c0.13,0.09,0.29,0.12,0.45,0.17c2.12,0.7,3.78-0.23,4.41-2.42
		c0.53-1.86,0.14-3.53-1.13-4.91c-0.74-0.81-1.63-1.66-2.63-2.02c-2.8-1.03-3.7-3.15-4.25-5.84c-2.14-10.5-6.64-19.98-12.72-28.76
		c-8.11-11.72-19.21-19.5-32.36-24.57c-1.04-0.4-2.13-0.7-3.22-0.9c-1.19-0.22-2.29,0.49-2.57,1.64c-0.23,0.92-0.37,1.89-0.37,2.84
		c0.03,4.8-0.09,9.61,0.23,14.39c0.41,6.24,0.28,12.47,0.38,18.71c0.01,0.8-0.03,1.6-0.16,2.39c-0.42,2.6-1.67,3.56-4.32,3.32
		c-0.63-0.06-1.27-0.19-1.89-0.34c-6.07-1.44-12.12-2.95-18.21-4.33c-3.21-0.73-4.93-2.58-5.49-5.83c-0.46-2.67-1.1-5.34-1.94-7.91
		c-5.79-17.65-24.18-38.15-47.81-41.14c-2.53-0.32-5.07-0.63-7.61-0.88c-2.07-0.21-4.18-0.14-6.21-0.53
		c-6.62-1.28-13.35-1.57-20.04-2.02c-13.72-0.93-27.42-2.07-41.18-2.35c-3.67-0.07-7.33-0.53-11-0.84
		c-0.63-0.05-1.34-0.24-1.41-1.03c-0.06-0.72,0.51-1.16,1.08-1.42c2.04-0.93,4.09-1.83,6.15-2.68c15.08-6.24,30.13-12.53,45.66-17.6
		c3.04-0.99,6.13-1.85,9.08-3.06c3.11-1.28,6.19-2.57,9.44-3.49c1.67-0.48,3.27-1.29,4.81-2.11c1.09-0.58,1.5-1.68,1.11-2.89
		c-1.46-4.53-2.44-7.59-8.9-5.03c-0.45,0.18-0.9,0.35-1.35,0.49c-9.48,2.94-18.5,7.08-27.89,10.31
		c-21.33,7.35-41.88,16.69-62.45,25.92c-0.29,0.13-0.57,0.29-0.87,0.4c-3.82,1.49-4.82,4.23-3.85,9.14c0.23,1.18,1.1,1.96,2.3,2.19
		c0.94,0.18,1.9,0.28,2.86,0.28c8.16,0.05,16.3,0.43,24.45,0.72c11.34,0.4,22.7,0.19,34.02,1.34c6.68,0.67,13.4,0.99,20.07,1.72
		c7.47,0.81,14.89,2.05,22.43,2.2c2.71,0.05,5.42,0.49,8.1,0.91c4.59,0.72,9.11,1.78,13.33,3.82c13.45,6.5,22.06,17.12,26.48,31.26
		c0.28,0.91,0.48,1.87,0.57,2.81c0.16,1.66-0.86,2.77-2.57,2.72c-1.27-0.04-2.54-0.27-3.79-0.51c-8.63-1.69-17.24-3.51-25.89-5.08
		c-11.8-2.14-23.61-4.29-35.54-5.56c-6.52-0.69-13.06-1.18-19.57-1.92c-13.03-1.48-26.09-2.73-39.19-3.24
		c-16.63-0.64-33.26-0.08-49.84,1.37c-2.06,0.18-4.16,0.26-6.22,0.13c-1.91-0.12-2.92-1.13-3.17-3.01
		c-0.21-1.58-0.21-3.19-0.21-4.79c-0.01-9.12,0.01-18.24,0-27.35c0-1.44-0.02-2.89-0.25-4.3c-0.39-2.37-2.21-3.57-4.53-3.14
		c-2.07,0.39-3.51,1.57-4.01,3.64c-0.26,1.08-0.38,2.21-0.37,3.32c0.05,9.76,0.15,19.51,0.23,29.27c0.01,1.27,0.06,2.56-0.11,3.82
		c-0.31,2.3-1.68,3.75-3.95,4.28c-0.77,0.18-1.58,0.26-2.37,0.35c-4.76,0.56-9.53,1.12-14.29,1.67c-2.7,0.31-5.4,0.67-8.11,0.87
		c-1.72,0.13-2.79-0.71-3.04-2.39c-0.23-1.57-0.29-3.18-0.29-4.78c-0.03-9.44-0.01-18.88-0.02-28.31c0-1.44,0.01-2.89-0.15-4.31
		c-0.27-2.31-1.57-3.48-3.75-3.57c-2.11-0.09-3.76,1.07-4.22,3.14c-0.24,1.08-0.28,2.22-0.28,3.33
		C-83.15-252.73-83.14-247.29-83.14-241.85z M-328.98-264.56c-1.49,1.59-1.54,3.37-1.87,4.99c-3.29,15.97-6.55,31.95-9.82,47.92
		c-5.31,25.91-14.63,50.33-27.51,73.39c-4.21,7.55-8.25,15.18-11.89,23.01c-6.04,12.96-10.87,26.31-12.59,40.61
		c-0.36,3.02-0.77,6.03-1.1,9.05c-1.48,13.32-0.04,26.15,6.13,38.27c5.06,9.94,6.69,20.61,6.12,31.66c-0.32,6.1,0.39,6.94,6.63,6.97
		c12.48,0.05,24.95,0.05,37.43,0.07c0.8,0,1.6,0,2.4-0.04c4.77-0.24,5.61-1.02,5.66-5.71c0.07-6.56,0.02-13.12,0.01-19.67
		c0-0.8-0.04-1.61-0.18-2.39c-0.27-1.58-1.24-2.61-2.82-2.86c-1.26-0.2-2.54-0.22-3.82-0.29c-2.39-0.14-4.79-0.32-7.18-0.38
		c-2.68-0.07-4.45-1.38-5.77-3.64c-4.44-7.6-8.81-15.22-12.07-23.43c-1.6-4.02-3.03-8.09-4.07-12.29
		c-2.54-10.23-3.45-20.49-0.48-30.82c0.31-1.07,0.57-2.18,0.7-3.28c0.9-7.6,4.13-14.4,7.26-21.23c0.73-1.6,1.6-3.14,2.25-4.76
		c2.38-5.94,4.72-11.89,7.03-17.86c2.89-7.46,5.7-14.94,7.77-22.68c1.57-5.87,3.27-11.71,4.88-17.57c0.34-1.23,0.62-2.48,0.81-3.74
		c2.1-13.76,3.68-27.58,4.63-41.46c0.85-12.28,1.4-24.58,2.05-36.87C-328.32-261.13-328.03-262.73-328.98-264.56z M240.8,322.28
		c0.69,0,1.65-0.03,2.61,0c7.77,0.24,13.61-4.04,19.37-8.4c0.98-0.75,1.68-1.92,2.38-2.99c2.3-3.51,3.72-7.36,4.76-11.45
		c2.01-7.88-0.43-14.81-5.14-20.65c-6.59-8.17-15.72-12.35-26.22-11.57c-12.5,0.93-21.45,7.65-26.48,19.25
		c-1.84,4.25-1.98,8.69-0.95,13.18c0.94,4.09,2.73,7.84,4.78,11.47c1.62,2.87,3.89,5.04,6.75,6.64
		C228.21,320.88,234.09,322.72,240.8,322.28z M-171.77-266.08c0.09-4.51-2.91-7.38-6.9-6.18c-3.86,1.15-6.6,3.84-7.89,7.74
		c-0.52,1.56-0.23,3.17,0.48,4.67c1,2.09,2.67,3.11,4.98,3.07C-176.55-256.85-171.86-261.54-171.77-266.08z M-198.97-252.06
		c5.09-0.16,9.81-6.06,8.83-11.05c-0.59-3-3.36-4.96-6.35-4.49c-3.95,0.62-7.96,4.71-8.54,8.71
		C-205.59-254.99-202.88-251.94-198.97-252.06z M-56.27-285.71c-0.18,3.12,2.02,6.02,5.1,6.58c2.44,0.44,4.78-0.02,6.88-1.34
		c2.58-1.63,3.69-5.24,2.72-8.52c-0.74-2.52-3.78-4.55-6.71-4.47C-51.73-293.38-56.06-289.17-56.27-285.71z M-29.77-280.59
		c2.99,0.05,5.52-1.3,6.89-4.4c1.12-2.53,0.79-4.98-0.97-7.14c-1.56-1.91-6.39-3.02-8.84-2.13c-2.99,1.07-5.09,5.14-4.46,8.63
		C-36.58-282.46-33.93-280.56-29.77-280.59z M-81.78-190.4c4.69,0.09,7.97-2.39,9.04-6.84c0.36-1.47,0.21-2.85-0.66-4.09
		c-1.35-1.94-3.2-3.03-5.61-3.07c-3.77-0.05-6.52,1.81-8.12,5.49C-89.16-194.22-86.82-190.51-81.78-190.4z"/>
	<path d="M-103.96,195.36c21.44,0,42.88,0,64.32,0c1.28,0,2.56-0.03,3.84,0.06c3.75,0.27,5.17,1.45,6.02,5.01
		c0.26,1.09,0.34,2.22,0.58,3.31c2.02,8.88,6.92,15.74,14.68,20.48c14.03,8.57,32.74,3.23,40.19-13.26
		c0.98-2.17,1.54-4.54,2.23-6.83c0.41-1.38,0.65-2.81,1.05-4.19c0.8-2.78,2.71-4.26,5.58-4.47c1.43-0.11,2.88-0.13,4.32-0.13
		c41.44,0,82.88,0,124.32,0.01c1.44,0,2.88-0.03,4.32,0.06c4.08,0.25,5.58,1.44,6.92,5.41c0.26,0.76,0.45,1.53,0.66,2.31
		c1.74,6.49,3.49,12.98,5.23,19.47c0.21,0.77,0.45,1.54,0.59,2.32c0.5,2.78-0.1,3.94-2.78,4.65c-2.62,0.69-5.32,1.14-8,1.57
		c-19.11,3.11-38.32,5.49-57.56,7.54c-12.24,1.3-24.49,2.52-36.79,3.33c-12.45,0.82-24.91,1.37-37.36,1.98
		c-21.76,1.06-43.51,0.7-65.26,0.5c-9.26-0.09-18.52-0.91-27.78-1.45c-6.39-0.37-12.77-0.79-19.15-1.25
		c-16.43-1.17-32.87-2.09-49.21-4.37c-9.03-1.26-18.11-2.09-27.15-3.27c-9.36-1.22-18.7-2.54-28.02-3.99c-6.4-1-7.3-2.34-5.69-8.75
		c1.75-6.98,3.84-13.87,5.79-20.8c0.17-0.61,0.42-1.21,0.66-1.8c0.8-1.96,2.24-3.1,4.36-3.25c1.75-0.12,3.52-0.14,5.27-0.14
		c21.28-0.01,42.56-0.01,63.84-0.01C-103.96,195.39-103.96,195.37-103.96,195.36z"/>
	<path d="M653.98,351.32c-0.09,1.83-0.64,2.79-1.77,3.26c-0.88,0.36-1.84,0.5-2.76,0.75c-15.46,4.16-31.11,7.38-46.88,10.16
		c-20.48,3.61-40.83,7.9-61.35,11.27c-21.78,3.59-43.56,7.16-65.42,10.24c-14.89,2.1-29.79,4.05-44.73,5.76
		c-10.48,1.2-20.91,2.87-31.39,4.17c-10,1.24-20.02,2.27-30.03,3.41c-8.9,1.02-17.79,2.03-26.68,3.11
		c-12.22,1.49-24.43,3.11-36.66,4.56c-10.32,1.23-20.64,2.59-31,3.36c-9.42,0.7-18.76,2.06-28.15,2.96
		c-11.94,1.14-23.82,2.79-35.69,4.48c-10.93,1.55-21.87,2.98-32.8,4.49c-35.52,4.89-70.83,10.9-105.48,20.27
		c-14.86,4.02-29.35,9.04-43.09,16.07c-3.13,1.6-6.17,3.39-9.27,5.05c-1.26,0.68-2.56,1.3-3.89,1.84c-0.35,0.14-1.02,0-1.28-0.27
		c-0.25-0.26-0.35-0.96-0.17-1.28c0.62-1.11,1.3-2.21,2.11-3.19c6.46-7.84,13.94-14.55,22.58-19.9
		c10.93-6.77,22.59-12.01,34.74-16.16c18.97-6.48,38.42-11.04,58.17-14.35c16.1-2.7,32.3-4.6,48.48-6.66
		c10.47-1.34,20.96-2.55,31.46-3.57c9.71-0.94,19.45-1.53,29.17-2.29c6.38-0.5,12.75-1.02,19.13-1.52c1.28-0.1,2.55-0.24,3.83-0.23
		c7.7,0.05,15.31-0.99,22.96-1.67c4.62-0.41,9.24-0.82,13.86-1.18c13.87-1.07,27.75-2.05,41.61-3.21
		c8.13-0.68,16.26-1.28,24.39-1.83c7.33-0.49,14.64-1.46,21.95-2.23c7.63-0.81,15.27-1.58,22.9-2.46c8.73-1,17.49-1.79,26.2-3
		c10.45-1.45,20.9-2.92,31.42-3.88c5.88-0.54,11.7-1.74,17.53-2.74c19.55-3.34,39.12-6.6,58.63-10.12
		c21.74-3.93,43.1-9.5,64.42-15.26c10.04-2.72,20.03-5.56,29.9-8.81c5.32-1.75,6-1.49,9.15,3.09c1.09,1.58,2.06,3.24,3.01,4.91
		C653.65,349.69,654.02,350.76,653.98,351.32z"/>
	<path d="M31.3,466.12c-0.39-0.04-0.73-0.01-1.01-0.13c-0.26-0.11-0.57-0.34-0.65-0.58c-0.08-0.25,0.01-0.72,0.19-0.84
		c1.2-0.78,2.42-1.55,3.69-2.21c9.41-4.87,19.28-8.59,29.39-11.7c22.67-6.97,45.77-12.04,69.1-16.18c18.43-3.27,36.95-5.9,55.5-8.39
		c16.48-2.21,33-4.13,49.51-6.15c14.76-1.8,29.52-3.6,44.29-5.33c6.99-0.82,13.99-1.45,20.98-2.22c9.69-1.07,19.38-2.22,29.08-3.3
		c7.95-0.88,15.9-1.65,23.84-2.59c7.62-0.9,15.22-2,22.83-2.94c7.62-0.94,15.25-1.72,22.86-2.71c6.18-0.8,12.38-1.6,18.56-2.25
		c15.44-1.62,30.71-4.39,46.08-6.42c16.8-2.22,33.63-4.29,50.38-6.88c17.37-2.69,34.67-5.9,51.99-8.93
		c7.72-1.35,15.43-2.78,23.13-4.23c2.67-0.5,5.3-1.17,7.95-1.79c1.71-0.4,3.41-0.87,5.13-1.24c15.32-3.31,30.64-6.61,45.97-9.9
		c1.56-0.34,3.13-0.65,4.71-0.88c2.4-0.35,4.42,0.41,5.99,2.28c2.87,3.44,5.75,6.86,8.58,10.34c1.07,1.31,0.66,2.32-1.04,2.8
		c-0.77,0.21-1.56,0.37-2.34,0.49c-18.2,2.64-36.4,5.28-54.6,7.9c-11.71,1.69-23.41,3.52-35.15,4.99
		c-18.25,2.3-36.39,5.35-54.59,7.98c-16.46,2.38-32.92,4.76-49.38,7.15c-11.71,1.7-23.41,3.46-35.13,5.13
		c-10.45,1.49-20.92,2.85-31.36,4.36c-16.3,2.35-32.59,4.76-48.88,7.16c-16.45,2.42-32.91,4.86-49.36,7.25
		c-7.75,1.13-15.52,2.16-23.28,3.29c-11.39,1.65-22.75,3.56-34.17,4.96c-22.22,2.73-44.3,6.48-66.44,9.71
		c-23.26,3.4-46.54,6.69-69.8,10.06c-20.89,3.03-41.78,6.1-62.67,9.13C44.54,464.29,37.88,465.19,31.3,466.12z"/>
	<path d="M-16.51,464.45c0.07,0.45-0.68,1.17-1.23,1.11c-1.33-0.13-2.38-0.89-3.5-1.51c-8.28-4.56-16.87-8.45-25.66-11.91
		c-18.52-7.28-37.67-12.35-57.14-16.29c-23.05-4.66-46.27-8.3-69.52-11.79c-20.09-3.01-40.22-5.62-60.36-8.19
		c-14.59-1.86-29.21-3.46-43.82-5.17c-9.69-1.13-19.36-2.43-29.07-3.33c-7.81-0.72-15.53-2.01-23.3-2.99
		c-6.98-0.88-14-1.43-20.99-2.16c-10.18-1.06-20.36-2.04-30.52-3.24c-11.59-1.37-23.18-2.76-34.73-4.45
		c-15.03-2.2-30.16-3.62-45.12-6.29c-7.71-1.38-15.53-2.06-23.28-3.21c-17.88-2.63-35.76-5.23-53.6-8.07
		c-22.74-3.63-45.42-7.61-67.99-12.21c-16.93-3.45-33.8-7.12-50.57-11.29c-6.65-1.65-6.67-1.76-3.14-7.7
		c0.9-1.51,1.76-3.05,2.74-4.51c1.63-2.42,2.49-2.73,5.23-1.91c4.9,1.47,9.78,3.02,14.67,4.51c37.39,11.38,75.41,20.01,113.96,26.39
		c12.62,2.09,25.21,4.35,37.85,6.29c8.21,1.26,16.49,2.09,24.75,3.11c8.89,1.1,17.77,2.24,26.66,3.28
		c7.78,0.91,15.57,1.71,23.36,2.54c7.31,0.78,14.63,1.53,21.94,2.28c6.36,0.65,12.71,1.31,19.1,1.7c10.21,0.61,20.4,1.63,30.6,2.39
		c6.05,0.45,12.06,1.34,18.17,1.4c4.78,0.05,9.56,0.66,14.32,1.24c2.7,0.33,5.4,0.52,8.12,0.68c8.3,0.48,16.59,1.02,24.89,1.56
		c5.9,0.39,11.8,0.79,17.7,1.24c6.38,0.48,12.75,1.02,19.12,1.55c4.46,0.37,8.92,0.79,13.38,1.13c18.18,1.36,36.29,3.42,54.37,5.75
		c19.99,2.58,39.9,5.62,59.63,9.77c22.01,4.63,43.32,11.28,63.24,21.97c6.37,3.42,12.37,7.34,17.91,11.98
		c3.95,3.3,7.33,7.13,10.42,11.23C-17.25,462.27-16.6,463.19-16.51,464.45z"/>
	<path d="M-101.65,189.72c-20.62,0-41.25,0-61.87,0c-2.4,0-4.8,0.1-7.16-0.45c-1.97-0.46-2.71-1.49-2.31-3.47
		c0.28-1.4,0.75-2.77,1.22-4.13c2.05-6.07,4.69-11.9,7.32-17.72c5.53-12.24,11.57-24.23,18.55-35.72
		c4.66-7.67,10.17-14.73,15.63-21.82c0.39-0.51,0.8-1.01,1.25-1.45c1.72-1.68,3.07-1.99,5.19-0.86c1.83,0.97,3.55,2.16,5.28,3.31
		c27.13,18.1,54.26,36.21,81.39,54.31c2.93,1.95,5.87,3.87,8.8,5.83c0.93,0.62,1.88,1.23,2.72,1.96c1.87,1.61,2.1,2.82,1.01,5.06
		c-0.91,1.87-2,3.65-2.82,5.56c-0.82,1.9-1.51,3.87-2.07,5.87c-0.66,2.34-2.16,3.47-4.49,3.59c-1.91,0.1-3.83,0.15-5.75,0.15
		C-60.4,189.73-81.03,189.72-101.65,189.72z"/>
	<path d="M-663.96,355.16c0.81,0.17,2.11,0.3,3.29,0.73c12.98,4.77,26.54,7.14,40.01,9.9c8.93,1.83,17.8,3.93,26.76,5.61
		c27.82,5.21,55.69,10.14,83.7,14.23c19.14,2.8,38.29,5.61,57.46,8.22c13.78,1.88,27.6,3.42,41.4,5.14
		c4.76,0.59,9.5,1.34,14.26,1.89c5.72,0.66,11.45,1.13,17.17,1.78c4.29,0.49,8.56,1.15,12.84,1.69c8.56,1.07,17.13,2.15,25.7,3.16
		c12.7,1.51,25.4,2.99,38.11,4.43c10.17,1.15,20.34,2.17,30.51,3.31c9.22,1.03,18.42,2.13,27.63,3.23c10,1.19,20,2.37,30,3.63
		c12.53,1.58,25.07,3.13,37.58,4.88c21.86,3.06,43.63,6.69,65.22,11.27c18.78,3.98,37.53,8.07,55.73,14.32
		c7.87,2.7,15.59,5.8,23.06,9.49c1.39,0.68,3.65,0.75,3.54,3.21c-1.53,1.15-3.09,0.21-4.6-0.01c-9.97-1.43-19.93-2.92-29.9-4.4
		c-25.46-3.8-50.92-7.59-76.38-11.4c-26.25-3.93-52.49-7.9-78.75-11.83c-9.33-1.4-18.69-2.57-28-4.12c-8.2-1.36-16.37-2.9-24.6-4.06
		c-16.15-2.28-32.28-4.65-48.42-7.03c-15.82-2.33-31.63-4.73-47.44-7.09c-14.23-2.13-28.5-4.03-42.68-6.41
		c-25.87-4.35-51.88-7.68-77.8-11.64c-17.39-2.66-34.75-5.44-52.14-8.1c-6-0.92-12.05-1.55-18.06-2.46
		c-17.86-2.72-35.67-5.73-53.56-8.23c-19.8-2.77-39.57-5.68-59.3-8.86c-1.1-0.18-2.22-0.35-3.27-0.69
		c-1.39-0.45-2.02-1.98-1.17-3.07c2.37-3.01,4.81-5.97,7.34-8.85C-667.64,355.81-666.1,355.24-663.96,355.16z"/>
	<path d="M-60.07,426.07c-0.23,0.19-0.48,0.55-0.68,0.53c-1.1-0.16-2.22-0.3-3.26-0.67c-3.77-1.34-7.56-2.63-11.24-4.18
		c-3.56-1.5-7.2-2.63-10.93-3.57c-19.54-4.95-39.16-9.58-59.11-12.56c-11.38-1.7-22.83-2.99-34.26-4.33
		c-8.41-0.99-16.85-1.81-25.28-2.61c-8.75-0.83-17.52-1.55-26.28-2.28c-10.36-0.86-20.71-1.69-31.07-2.52
		c-4.78-0.38-9.56-0.79-14.35-1.11c-11.33-0.76-22.66-1.44-33.98-2.24c-11.16-0.79-22.32-1.62-33.47-2.54
		c-12.27-1.01-24.54-2.05-36.79-3.23c-10.5-1.01-20.98-2.24-31.48-3.37c-6.52-0.7-13.04-1.37-19.55-2.11
		c-14.45-1.64-28.92-3.13-43.33-5.03c-11.89-1.57-23.71-3.59-35.55-5.51c-21.95-3.55-43.79-7.67-65.48-12.58
		c-23.57-5.33-46.92-11.45-69.93-18.83c-1.52-0.49-3.04-1-4.46-1.72c-1.47-0.74-1.95-2.01-1.64-3.63c0.12-0.62,0.31-1.24,0.53-1.84
		c1.47-4.06,2.95-8.11,4.44-12.16c0.22-0.6,0.47-1.19,0.8-1.74c0.83-1.42,2.03-1.95,3.67-1.5c1.07,0.29,2.12,0.72,3.12,1.21
		c29.08,14.22,59.98,22.96,91.39,30.09c17.47,3.96,35.05,7.38,52.75,10.15c11.53,1.8,23.09,3.39,34.61,5.22
		c14.38,2.28,28.84,3.75,43.33,5.05c14.01,1.26,27.99,2.87,41.98,4.31c10.81,1.11,21.64,2.16,32.45,3.28
		c5.57,0.58,11.12,1.26,16.69,1.85c5.72,0.61,11.44,1.22,17.18,1.73c12.58,1.1,25.18,2,37.75,3.22c13.68,1.32,27.34,2.96,41.01,4.37
		c13.21,1.36,26.38,3.01,39.49,5.08c28.29,4.45,56.47,9.46,84.08,17.24c8.31,2.34,16.61,4.79,24.64,7.98
		c6.54,2.6,12.98,5.43,19.45,8.19c0.87,0.37,1.65,0.96,2.43,1.51C-60.19,425.37-60.17,425.78-60.07,426.07z"/>
	<path d="M99.87,189.79c-20.32,0-40.63,0.01-60.95-0.02c-2.07,0-4.16-0.12-6.21-0.38c-2.45-0.32-4.15-1.74-4.62-4.23
		c-0.51-2.69-1.47-5.23-2.41-7.78c-1.03-2.76-0.36-5.03,1.96-6.8c1.14-0.87,2.32-1.7,3.53-2.49c29.73-19.43,59.45-38.85,89.19-58.26
		c1.07-0.7,2.17-1.36,3.31-1.93c2.12-1.04,4.07-0.67,5.68,1.03c0.87,0.92,1.64,1.97,2.38,3.01c8.82,12.4,16.97,25.19,23.09,39.2
		c2.95,6.73,6.49,13.21,9.06,20.12c1.34,3.6,2.59,7.22,3.84,10.85c0.41,1.21,0.77,2.45,1,3.7c0.39,2.17-0.49,3.45-2.63,3.72
		c-1.42,0.18-2.87,0.14-4.31,0.14c-20.64,0.01-41.27,0.01-61.91,0.01C99.87,189.73,99.87,189.76,99.87,189.79z"/>
	<path d="M-19.27,476.18c-1.74-0.21-3.33-0.39-4.91-0.6c-13.32-1.77-26.63-3.54-39.94-5.3c-10.78-1.43-21.56-2.86-32.34-4.28
		c-13.16-1.73-26.32-3.46-39.48-5.2c-11.26-1.49-22.51-2.98-33.76-4.49c-12.84-1.72-25.68-3.44-38.51-5.17
		c-15.69-2.12-31.37-4.28-47.07-6.36c-13.47-1.79-26.96-3.5-40.44-5.23c-12.85-1.65-25.74-2.99-38.53-5.03
		c-15.48-2.48-31.11-3.8-46.58-6.34c-3.63-0.6-7.3-0.99-10.9-1.73c-6.14-1.26-12.42-1.1-18.59-1.98c-8.7-1.25-17.44-2.29-26.16-3.46
		c-15.53-2.08-31.06-4.18-46.59-6.29c-15.69-2.13-31.37-4.32-47.06-6.43c-15.69-2.11-31.39-4.15-47.08-6.23
		c-13.32-1.76-26.63-3.55-39.95-5.29c-13.48-1.76-26.96-3.48-40.44-5.22c-12.53-1.62-25.05-3.25-37.58-4.88
		c-0.32-0.04-0.64-0.06-0.95-0.15c-1.2-0.33-2.97-0.12-3.33-1.44c-0.46-1.66,1.34-2.35,2.45-3.15c3.37-2.44,6.84-4.74,10.19-7.21
		c2.32-1.71,4.76-2.39,7.65-1.92c5.52,0.9,11.08,1.62,16.61,2.45c20.88,3.12,41.75,6.25,62.63,9.38
		c11.54,1.73,23.08,3.51,34.62,5.23c23.88,3.56,47.77,7.11,71.65,10.65c20.09,2.98,40.18,5.92,60.27,8.95
		c15.97,2.41,31.92,4.96,47.89,7.38c7.27,1.1,14.57,2,21.85,3.08c21.04,3.12,42.07,6.28,63.1,9.41c22.14,3.29,44.3,6.54,66.44,9.84
		c20.72,3.09,41.43,6.26,62.15,9.36c24.36,3.65,48.72,7.25,73.07,10.89c22.62,3.38,45.23,6.8,67.84,10.19
		c3.48,0.52,6.97,0.97,10.44,1.56c1.88,0.32,3.79,0.73,5.14,2.31c0.67,0.77,0.36,2.13-0.61,2.3C-17.18,476-18.3,476.07-19.27,476.18
		z"/>
	<path d="M672.73,376.91c2.02-0.04,3.32,0.07,4.44,0.75c3.69,2.25,7.24,4.71,10.54,7.49c0.9,0.76,0.64,1.93-0.45,2.23
		c-0.77,0.21-1.56,0.35-2.35,0.45c-17.28,2.26-34.57,4.5-51.85,6.76c-13.16,1.72-26.32,3.47-39.48,5.2
		c-16.01,2.11-32.03,4.19-48.04,6.31c-12.68,1.68-25.36,3.41-38.04,5.1c-16.17,2.16-32.34,4.28-48.51,6.44
		c-9.99,1.34-19.96,2.76-29.95,4.06c-9.99,1.3-19.94,2.86-29.98,3.77c-7,0.64-13.93,2.01-20.9,2.97
		c-13.78,1.88-27.58,3.7-41.37,5.54c-10.3,1.38-20.61,2.74-30.91,4.12c-15.85,2.13-31.7,4.28-47.55,6.42
		c-12.84,1.74-25.67,3.51-38.51,5.21c-15.85,2.11-31.71,4.17-47.57,6.25c-13.16,1.73-26.32,3.46-39.48,5.18
		c-13.8,1.81-27.59,3.6-41.39,5.43c-12.84,1.71-25.67,3.48-38.52,5.18c-12.37,1.63-24.74,3.2-37.11,4.79
		c-0.31,0.04-0.65,0.08-0.95,0.02c-0.29-0.06-0.74-0.21-0.8-0.41c-0.11-0.41-0.18-1,0.04-1.3c1.85-2.51,4.59-3.35,7.49-3.8
		c4.43-0.69,8.86-1.32,13.29-1.96c24.22-3.48,48.44-6.96,72.66-10.44c25.33-3.64,50.66-7.27,75.98-10.95
		c18.36-2.67,36.71-5.43,55.06-8.11c16.46-2.4,32.93-4.73,49.39-7.12c13.93-2.02,27.84-4.14,41.78-6.11
		c10.77-1.52,21.57-2.8,32.33-4.32c6.97-0.98,13.89-2.26,20.85-3.28c19.78-2.88,39.57-5.65,59.35-8.54c20.57-3,41.13-6.11,61.7-9.11
		c17.72-2.59,35.46-5.1,53.19-7.65c10.29-1.48,20.57-2.98,30.86-4.42c12.98-1.83,25.97-3.57,38.95-5.44
		c14.25-2.05,28.48-4.21,42.72-6.32C670.91,377.15,672.18,376.99,672.73,376.91z"/>
	<path d="M-2.55,87.15c1.1,20.73,0.56,42.32,0.68,63.92c0.01,2.24,0.13,4.49-0.48,6.68c-0.54,1.92-1.96,3.09-3.76,3.16
		c-1.37,0.05-2.57-0.44-3.38-1.51c-1.15-1.53-2.21-3.13-3.2-4.77c-13.45-22.34-26.87-44.7-40.32-67.04
		c-5.37-8.91-10.81-17.76-16.22-26.64c-0.41-0.68-0.84-1.37-1.14-2.1c-0.89-2.1-0.6-3.65,1.21-5.14c1.35-1.11,2.86-2.05,4.37-2.93
		c9.55-5.53,19.12-11.04,28.69-16.53c9.44-5.41,18.72-11.09,27.76-17.14c1.19-0.79,2.45-1.49,3.76-2.07
		c0.58-0.26,1.29,0.11,1.55,0.78c0.23,0.58,0.36,1.23,0.39,1.86c0.07,1.6,0.08,3.2,0.08,4.8C-2.55,43.73-2.55,65.01-2.55,87.15z"/>
	<path d="M3.75,86.7c0-22.07,0-44.15,0.01-66.22c0-1.75-0.18-3.52,0.38-5.24c0.24-0.75,1.27-1.26,1.93-0.88
		c0.68,0.4,1.36,0.83,1.95,1.36c8.95,8.08,18.89,14.76,29.15,21.01c7.24,4.41,14.46,8.85,21.7,13.25c1.36,0.83,2.82,1.5,4.23,2.26
		c1.27,0.68,2.57,1.3,3.79,2.07c4.07,2.58,4.78,4.89,2.71,9.28c-1.02,2.16-2.24,4.24-3.48,6.29
		c-12.52,20.66-25.11,41.26-37.56,61.96c-4.78,7.95-9.22,16.1-13.81,24.16c-0.87,1.53-1.66,3.11-2.94,4.36
		c-1.37,1.32-2.95,1.91-4.82,1.24c-1.82-0.65-2.93-1.95-3.08-3.89c-0.14-1.75-0.16-3.51-0.16-5.27
		C3.74,130.53,3.75,108.62,3.75,86.7C3.75,86.7,3.75,86.7,3.75,86.7z"/>
	<path d="M55.05,427.99c2.99-2.06,6.14-3.83,9.59-5.12c5.54-2.08,11.05-4.24,16.59-6.32c2.54-0.96,5.1-1.9,7.7-2.69
		c24.84-7.54,50.19-12.81,75.81-16.87c18.64-2.95,37.35-5.43,56.11-7.44c11.45-1.23,22.92-2.16,34.39-3.22
		c12.58-1.16,25.15-2.35,37.73-3.47c8.92-0.79,17.85-1.46,26.77-2.25c9.08-0.8,18.15-1.68,27.23-2.5c4.14-0.37,8.28-0.75,12.43-1
		c13.89-0.84,27.71-2.47,41.55-3.85c10.18-1.01,20.37-1.95,30.55-2.99c15.75-1.61,31.46-3.54,47.1-6.01
		c20.22-3.2,40.44-6.4,60.5-10.54c23.53-4.85,46.75-10.81,69.25-19.35c8.38-3.18,16.59-6.76,24.64-10.71
		c1.58-0.77,3.17-1.55,4.84-2.09c2.22-0.73,3.68-0.05,4.71,2.09c1.12,2.32,1.82,4.78,1.97,7.37c0.13,2.32-0.79,4.08-2.92,5.03
		c-1.6,0.72-3.26,1.33-4.93,1.86c-15.71,4.97-31.59,9.36-47.57,13.37c-29.03,7.28-58.35,13.17-87.89,17.93
		c-15.31,2.47-30.68,4.62-46.04,6.74c-6.81,0.94-13.68,1.38-20.51,2.15c-9.22,1.04-18.41,2.24-27.63,3.29
		c-11.12,1.27-22.18,3.02-33.39,3.46c-3.03,0.12-6.03,0.73-9.06,0.97c-12.91,1.04-25.82,2.05-38.73,3.03
		c-13.07,0.99-26.15,1.93-39.23,2.9c-12.92,0.96-25.83,1.86-38.74,2.91c-14.82,1.2-29.65,2.38-44.44,3.86
		c-18.93,1.89-37.88,3.66-56.7,6.53c-11.07,1.69-22.02,4.02-32.98,6.33c-10.96,2.3-21.83,4.93-32.59,8.05
		c-4.62,1.34-9.04,3.21-13.5,4.97c-3.99,1.58-8.05,3.02-12.07,4.52C55.38,428.63,55.22,428.31,55.05,427.99z"/>
	<path d="M-78.1,60c0.55,0.35,1.21,0.58,1.58,1.04c0.88,1.13,1.68,2.33,2.42,3.56c15.37,25.45,30.72,50.9,46.09,76.35
		c3.72,6.16,7.45,12.3,11.17,18.46c0.58,0.96,1.21,1.9,1.64,2.92c0.82,1.95-0.64,4-2.79,3.88c-0.92-0.05-1.89-0.36-2.71-0.8
		c-1.4-0.76-2.71-1.69-4.04-2.58c-30.18-20.14-60.35-40.29-90.52-60.44c-1.19-0.8-2.43-1.57-3.51-2.5
		c-2.13-1.84-2.27-3.53-0.58-5.86c0.56-0.77,1.23-1.47,1.9-2.16c10.67-10.85,22.03-20.89,34.63-29.47c0.92-0.63,1.87-1.24,2.85-1.77
		C-79.43,60.34-78.79,60.22-78.1,60z"/>
	<path d="M19.59,168.01c-1.92-0.07-3.24-1.64-2.75-3.04c0.52-1.49,1.29-2.92,2.1-4.28c5.94-10.05,11.92-20.09,17.88-30.13
		C48.91,110.21,61,89.85,73.1,69.5c0.82-1.37,1.6-2.78,2.54-4.07c1.85-2.54,3.32-2.84,6.17-1.29c1.12,0.61,2.18,1.34,3.22,2.08
		c6.24,4.49,12.26,9.24,17.89,14.48c5.27,4.9,10.59,9.76,15.57,14.96c4.4,4.59,4.32,5.52-1.04,9.03
		c-30.77,20.17-61.56,40.31-92.35,60.46c-1.2,0.79-2.43,1.56-3.7,2.23C20.72,167.75,19.92,167.9,19.59,168.01z"/>
	<path d="M-230.52,211.91c0-3.84-0.07-7.67,0.02-11.51c0.08-3.36,1.2-4.62,4.59-4.89c2.54-0.2,5.12-0.16,7.66,0.02
		c2.76,0.2,3.52,1.26,3.37,4.13c-0.05,0.95-0.19,1.91-0.39,2.85c-1.53,7.19-3.08,14.38-4.64,21.56c-0.17,0.78-0.41,1.55-0.71,2.28
		c-0.6,1.47-1.73,2.25-3.32,2.35c-0.32,0.02-0.64,0.03-0.96,0.02c-4.35-0.04-5.41-0.99-5.52-5.31c-0.1-3.83-0.02-7.67-0.02-11.51
		C-230.46,211.91-230.49,211.91-230.52,211.91z"/>
	<path d="M229.66,213.19c0,2.71,0.01,5.43-0.01,8.14c-0.01,1.12,0,2.24-0.13,3.35c-0.29,2.61-1.3,3.73-3.38,3.9
		c-2.48,0.21-3.98-0.69-4.8-3.02c-0.37-1.05-0.57-2.16-0.79-3.25c-1.4-6.88-2.88-13.74-4.76-20.51c-1.46-5.28-0.67-6.27,4.76-6.41
		c1.43-0.04,2.88-0.01,4.3,0.13c2.32,0.23,3.84,1.54,4.3,3.84c0.28,1.4,0.43,2.84,0.46,4.27c0.07,3.19,0.02,6.38,0.02,9.57
		C229.65,213.19,229.65,213.19,229.66,213.19z"/>
	<path d="M200.87-216.11c0-3.35-0.01-6.7,0.01-10.06c0.01-1.12,0.02-2.24,0.16-3.34c0.28-2.16,1.42-2.82,3.31-1.77
		c2.09,1.16,4.15,2.41,6.07,3.82c10.58,7.8,18.43,17.59,21.87,30.51c0.41,1.53,0.69,3.11,0.87,4.69c0.13,1.18-0.91,2.18-2.1,2.08
		c-1.1-0.09-2.21-0.3-3.28-0.59c-7.07-1.96-14.14-3.96-21.2-5.95c-0.77-0.22-1.53-0.45-2.29-0.71c-1.84-0.63-2.9-1.95-3.12-3.86
		c-0.17-1.42-0.26-2.86-0.28-4.29C200.85-209.08,200.88-212.59,200.87-216.11C200.88-216.11,200.87-216.11,200.87-216.11z"/>
	<path d="M-179.29-214.97c0,4.14,0.08,8.29-0.02,12.43c-0.09,3.85-0.7,4.74-4.39,5.82c-7.65,2.23-15.35,4.29-23.03,6.41
		c-0.46,0.13-0.94,0.18-1.41,0.22c-1.71,0.12-2.84-0.76-2.87-2.43c-0.02-1.26,0.15-2.54,0.4-3.78c0.67-3.31,1.9-6.43,3.51-9.38
		c4.72-8.67,11.03-15.97,19.1-21.71c1.82-1.3,3.71-2.49,5.85-3.2c1.45-0.49,2.52,0.19,2.72,1.75c0.14,1.1,0.16,2.22,0.17,3.34
		c0.02,3.51,0.01,7.01,0.01,10.52C-179.27-214.97-179.28-214.97-179.29-214.97z"/>
</g>
<g>
	<path d="M1848.72,515.65c490.24,0,980.48,0,1470.72,0c0,289.92,0,579.84,0,869.76c-489.92,0-979.84,0-1469.76,0
		c-1.26-2.53-1.2-5.26-1.2-7.99c0.02-14.87,0.06-29.75,0.06-44.62c0-270.47-0.01-540.93-0.01-811.4
		C1848.54,519.49,1848.66,517.57,1848.72,515.65z M2169.36,1070.52c-0.11,2.59,0.5,4.24,0.89,5.93c1.43,6.24,2.69,12.5,3.12,18.92
		c0.51,7.6-0.87,14.95-2.46,22.33c-2.51,11.68-7.96,21.87-15.11,31.27c-3.52,4.62-7.75,8.53-12.48,11.86
		c-3.53,2.49-7.18,4.81-10.85,7.07c-6.06,3.74-12.63,6.23-19.64,7.43c-6.78,1.17-13.61,1.97-20.51,1.98c-0.96,0-1.92,0.02-2.88,0.01
		c-2.25-0.01-3.55,1.18-4.14,3.27c-0.35,1.23-0.67,2.47-1.05,3.69c-0.38,1.22-0.72,2.47-1.22,3.64c-1.35,3.16-2.9,4.06-6.4,3.74
		c-1.11-0.1-2.2-0.38-3.3-0.61c-1.57-0.33-3.11-0.81-4.69-1c-11.62-1.45-22.96-4.24-34.3-7.02c-16.94-4.16-33.82-8.49-50.29-14.3
		c-13.6-4.8-26.86-10.39-39.62-17.1c-1.41-0.74-2.79-1.57-4.06-2.52c-1.17-0.88-1.26-2.37-0.16-3.34c1.68-1.47,3.46-2.84,5.3-4.11
		c11.71-8.09,23.43-16.19,35.2-24.21c8.06-5.49,16.25-10.78,24.3-16.29c9.24-6.33,18.36-12.83,27.57-19.2
		c30.11-20.86,60.27-41.67,90.35-62.57c9.98-6.94,20.29-13.39,30.06-20.65c5.13-3.81,10.46-7.39,15.89-10.76
		c6.81-4.23,13.06-9.24,19.7-13.69c1.04-0.7,1.94-1.66,2.78-2.6c0.56-0.63,0.63-1.51,0.18-2.25c-1.23-2.01-3.13-3.17-5.32-3.84
		c-1.73-0.52-3.12,0.43-4.38,1.43c-7.16,5.67-15.25,9.97-22.49,15.53c-5.32,4.09-11.13,7.52-16.58,11.44
		c-12.73,9.16-26,17.52-38.74,26.67c-11.56,8.31-23.68,15.84-35.15,24.26c-12.12,8.89-25.39,16.11-36.98,25.74
		c-0.24,0.2-0.52,0.38-0.8,0.54c-5.32,2.99-10.05,6.83-15.07,10.25c-3.57,2.43-7.21,4.76-10.78,7.18
		c-5.02,3.4-9.99,6.88-15.03,10.26c-4.78,3.2-9.71,6.19-14.41,9.51c-6.01,4.25-11.72,8.92-17.79,13.06
		c-8.19,5.59-16.53,10.94-24.52,16.82c-1.16,0.85-2.38,1.63-3.54,2.47c-1.9,1.37-3.07,3.16-3.4,5.55
		c-0.62,4.46-1.93,8.74-3.55,12.93c-0.46,1.19-0.77,2.44-1.08,3.68c-2.2,8.93-5.89,17.2-10.48,25.16
		c-7.01,12.13-16.04,22.3-27.77,30c-3.47,2.28-7.08,4.36-10.64,6.51c-1.51,0.91-3.09,1.7-4.55,2.68c-2.27,1.51-2.61,2.74-1.43,5.3
		c1.13,2.47,2.55,4.82,3.59,7.32c1.25,3,3.44,4.49,6.56,4.84c0.64,0.07,1.27,0.15,1.9,0.24c11.1,1.42,22.21,2.81,33.31,4.27
		c15.85,2.09,31.7,4.23,47.55,6.37c13.15,1.78,26.31,3.56,39.45,5.42c8.87,1.26,17.69,2.83,26.58,3.96
		c14.12,1.8,28.28,3.26,42.4,5.03c13.49,1.69,26.95,3.57,40.42,5.4c12.2,1.65,24.4,3.34,36.6,5.01c15.69,2.16,31.37,4.32,47.06,6.48
		c7.61,1.04,15.21,2.13,22.82,3.09c9.67,1.22,19.37,2.18,29.03,3.5c11.08,1.51,22.11,3.42,33.23,4.74
		c13.66,1.62,27.29,3.49,40.93,5.25c13.48,1.74,26.97,3.47,40.44,5.24c13.48,1.77,26.95,3.59,40.42,5.39
		c15.38,2.06,30.75,4.11,46.13,6.18c15.53,2.1,31.06,4.24,46.59,6.34c13.31,1.8,26.63,3.57,39.94,5.36
		c12.36,1.66,24.73,3.32,37.09,4.97c2.4,0.32,4.77,0.34,7.09-0.6c3.54-1.43,7.19-1.34,10.87-0.64c1.73,0.33,3.46,0.67,5.18,1
		c3.03,0.58,6.02,0.55,9.04-0.19c4.98-1.23,10.03-1.98,15.15-2.4c3.98-0.32,7.95-0.85,11.92-1.35c8.73-1.1,17.45-2.22,26.17-3.35
		c11.1-1.44,22.2-2.91,33.3-4.36c10.62-1.39,21.25-2.78,31.88-4.16c13.96-1.8,27.92-3.58,41.88-5.38
		c10.95-1.41,21.89-2.81,32.83-4.24c13.64-1.78,27.28-3.56,40.91-5.37c8.09-1.07,16.15-2.3,24.25-3.27
		c13.33-1.6,26.74-2.67,39.96-5.11c1.1-0.2,2.21-0.39,3.32-0.54c13.79-1.79,27.59-3.6,41.39-5.36c3.33-0.43,6.69-0.64,10.01-1.08
		c13-1.72,25.99-3.52,38.99-5.23c13.16-1.73,26.33-3.39,39.5-5.09c14.27-1.84,28.55-3.68,42.82-5.56
		c11.1-1.46,22.19-2.96,33.29-4.44c7.77-1.04,15.53-2.11,23.31-3.09c11.42-1.44,22.86-2.76,34.28-4.23
		c15.86-2.04,31.71-4.2,47.57-6.26c18.56-2.4,37.12-4.73,55.68-7.12c3.8-0.49,7.6-1.07,11.38-1.69c3.2-0.53,5.62-2.31,7.2-5.1
		c1.26-2.22,2.41-4.53,3.36-6.89c1.29-3.22,0.75-4.68-2.18-6.37c-2.08-1.2-4.27-2.19-6.37-3.36c-14.34-8.01-25.6-19.01-33.03-33.8
		c-3.61-7.18-6.37-14.66-8.35-22.44c-1.33-5.27-2.9-10.49-4.09-15.79c-0.83-3.67-2.72-6.24-5.85-8.32
		c-10.13-6.73-20.15-13.61-30.16-20.51c-14.23-9.79-28.39-19.68-42.62-29.46c-10.81-7.42-21.7-14.73-32.56-22.09
		c-0.66-0.45-1.31-0.91-1.97-1.37c-9.16-6.43-18.28-12.92-27.5-19.27c-9.35-6.44-18.84-12.69-28.2-19.13
		c-15.15-10.44-30.21-21-45.35-31.45c-11.32-7.82-22.71-15.53-34.06-23.31c-4.88-3.35-9.79-6.66-14.58-10.14
		c-2.87-2.08-5.52-2.17-8.26,0.08c-0.62,0.51-1.31,0.92-1.9,1.46c-1.72,1.55-1.68,3.01,0.18,4.33c2.87,2.03,5.79,4,8.69,5.99
		c17.81,12.21,35.65,24.39,53.42,36.65c6.58,4.54,13,9.33,19.56,13.9c4.85,3.38,9.83,6.56,14.71,9.9
		c7.92,5.42,15.8,10.9,23.71,16.34c3.95,2.72,7.97,5.35,11.9,8.11c11.91,8.37,23.64,16.99,35.76,25.06
		c8.65,5.76,17.35,11.46,25.6,17.82c4.3,3.32,8.78,6.41,13.61,8.98c2.11,1.12,4.06,2.56,6.03,3.92c6.71,4.64,13.4,9.32,20.09,13.97
		c7.62,5.3,15.26,10.56,22.85,15.9c4.06,2.86,3.99,3.72-0.34,6.2c-9.32,5.33-19.04,9.84-29.05,13.72
		c-15.24,5.91-30.91,10.47-46.7,14.59c-26.34,6.87-53.05,11.89-80.02,15.55c-12.04,1.63-24.01,3.77-36.13,4.82
		c-15.29,1.33-30.54,3.05-45.81,4.59c-8.75,0.88-17.5,1.75-26.25,2.62c-6.52,0.65-13.04,1.61-19.58,1.86
		c-10.73,0.4-21.34,1.94-32.03,2.67c-3.51,0.24-7.03,0.33-10.54,0.62c-9.4,0.79-18.78,1.97-28.19,2.41
		c-9.45,0.44-18.79,1.74-28.17,2.67c-7.64,0.76-15.27,1.63-22.91,2.35c-5.57,0.52-11.16,0.88-16.68,1.84
		c-2.52,0.44-5.06,0.75-7.6,1.04c-9.85,1.15-19.7,2.22-29.55,3.4c-12.08,1.44-24.03,3.65-35.97,5.93
		c-7.22,1.38-14.38,3.1-21.57,4.65c-3.75,0.81-7.56,1.38-11.25,2.42c-8.93,2.5-17.89,4.86-26.7,7.8
		c-7.14,2.38-14.25,4.78-21.18,7.67c-4.57,1.91-9.12,3.95-13.43,6.36c-9.93,5.55-19.46,11.72-28.35,18.85
		c-0.87,0.7-1.78,1.35-2.72,1.95c-0.69,0.44-1.69,0.01-1.9-0.84c-0.26-1.08-0.45-2.19-0.56-3.3c-0.33-3.34-0.62-6.69-0.9-10.03
		c-0.39-4.78-0.91-9.56-1.07-14.35c-0.16-4.64-0.44-9.25-1.15-13.85c-0.48-3.15-0.64-6.36-0.91-9.55
		c-0.41-4.78-0.78-9.56-1.19-14.34c-0.57-6.53-1.27-13.04-1.69-19.58c-0.23-3.67-0.36-7.34-0.92-10.99
		c-0.66-4.28-0.86-8.58-1.06-12.9c-0.25-5.43-0.73-10.85-1.21-16.27c-0.73-8.28-1.55-16.56-2.32-24.84
		c-0.07-0.79-0.11-1.6-0.05-2.39c0.15-2.12,1.09-3.24,3.17-3.6c1.25-0.22,2.55-0.3,3.82-0.27c14.73,0.36,29.41-0.82,44.11-1.25
		c6.87-0.2,13.74-0.61,20.6-1.12c9.89-0.74,19.75-1.69,29.63-2.52c9.57-0.8,19.09-2.01,28.57-3.48c16.28-2.53,32.52-5.29,48.78-7.95
		c1.74-0.28,3.47-0.62,5.22-0.75c2.72-0.2,4.13,0.87,4.94,3.52c0.14,0.46,0.23,0.93,0.32,1.41c1.04,5.82,2.05,11.65,3.13,17.47
		c0.35,1.88,0.83,3.74,1.3,5.6c0.07,0.26,0.37,0.56,0.63,0.64c0.52,0.17,0.92-0.18,1.12-0.61c0.55-1.15,1.05-2.33,1.57-3.5
		c1.56-3.52,3.35-6.92,5.63-10.03c7.34-10,16.74-16.04,29.63-15.65c8.95,0.27,17.91-0.01,26.87,0.47
		c6.86,0.36,13.74,0.18,20.62-0.21c6.7-0.37,13.43-0.17,20.15-0.24c1.76-0.02,3.53,0.02,5.27-0.18c2.23-0.25,3.27-1.26,3.35-3.36
		c0.17-4.47,0.76-8.9,0.76-13.39c-0.06-73.44-0.04-146.88-0.03-220.31c0.01-99.2,0.02-198.39,0.03-297.59
		c0-2.08-0.07-4.16-0.04-6.24c0.03-2.53-1.06-4.27-3.39-5.26c-0.73-0.31-1.43-0.72-2.14-1.08c-6.52-3.21-12.33-7.4-17.41-12.61
		c-0.67-0.69-1.34-1.37-2.05-2.02c-0.57-0.53-1.16-1.24-2.05-0.77c-0.62,0.32-0.7,1.03-0.72,1.67c-0.04,2.08-0.08,4.16-0.08,6.24
		c-0.01,172.64-0.02,345.27-0.03,517.91c0,0.96,0.04,1.92-0.03,2.88c-0.25,3.21-1.12,4.1-4.39,4.6c-5.75,0.89-11.5,0.03-17.24-0.16
		c-1.89-0.06-2.93-1.14-3.16-3.03c-0.25-2.06-0.25-4.15-0.25-6.22c-0.01-24,0.01-48,0.01-72c0-1.28,0.01-2.57-0.11-3.84
		c-0.26-2.67-1.27-3.67-3.92-3.93c-1.11-0.11-2.24-0.08-3.36-0.08c-4.32-0.01-8.64-0.01-12.96,0c-6.71,0-7.29,0.58-7.3,7.48
		c-0.01,11.2,0.02,22.4,0.02,33.6c0,1.44,0.04,2.89-0.1,4.32c-0.31,3.2-1.59,4.52-4.82,4.95c-3.05,0.4-6.07,0.01-9.04-0.7
		c-1.99-0.47-3.46-1.7-4.31-3.53c-0.81-1.73-1.51-3.53-2.1-5.35c-6.38-19.5-14.11-38.41-23.97-56.45
		c-6.54-11.96-13.77-23.43-22.13-34.19c-0.29-0.38-0.6-0.75-0.85-1.16c-1.57-2.52-1.31-4.33,1.05-6.29c1.1-0.92,2.33-1.69,3.53-2.48
		c6.83-4.46,13.68-8.89,20.52-13.35c17.82-11.63,35.63-23.27,53.44-34.92c1.47-0.96,2.93-1.96,4.27-3.08
		c1.14-0.95,1.22-2.26,0.44-3.44c-0.79-1.2-2.03-1.72-3.31-1.12c-1.58,0.75-3.09,1.66-4.57,2.62
		c-25.38,16.43-50.75,32.89-76.13,49.33c-5.63,3.65-7.12,3.45-11.93-1.51c-7.24-7.47-14.43-14.98-22.54-21.54
		c-7.46-6.04-14.62-12.46-23.05-17.19c-0.7-0.39-1.36-0.85-2.01-1.31c-3.95-2.8-4.39-4.48-2.15-8.91c0.93-1.85,2.04-3.62,3.1-5.42
		c9.56-16.27,19.84-32.13,28.76-48.78c1.06-1.97,2.22-3.9,3.49-5.74c5.46-7.91,9.7-16.56,14.86-24.65c0.69-1.07,1.24-2.24,1.77-3.4
		c0.26-0.57,0.43-1.21,0.49-1.84c0.11-1.24-0.46-2.16-1.55-2.74c-1.01-0.55-2.31-0.45-3.09,0.45c-0.93,1.08-1.79,2.26-2.49,3.5
		c-4.16,7.38-9.12,14.31-12.67,22.04c-0.26,0.57-0.64,1.12-1.05,1.6c-1.98,2.34-3.4,5.03-5,7.61c-3.79,6.11-6.76,12.7-10.93,18.59
		c-0.28,0.39-0.47,0.83-0.7,1.26c-6.37,11.66-13.21,23.04-20.13,34.37c-3.12,5.1-3.98,5.35-9.13,2.38
		c-9.43-5.43-19.09-10.44-28.78-15.37c-6.56-3.34-13.09-6.72-19.57-10.21c-9.64-5.19-18.44-11.45-25.8-19.7
		c-5.13-5.75-7.83-12.13-7.77-19.98c0.18-26.4,0.07-52.8,0.07-79.2c0-1.92,0.02-3.84-0.06-5.76c-0.04-1.11-0.18-2.24-0.44-3.31
		c-0.24-0.97-0.89-1.7-1.95-1.9c-1-0.18-2.17,0.49-2.74,1.55c-0.88,1.63-0.91,3.37-0.72,5.14c0.38,3.52,0.21,7.02-0.12,10.54
		c-0.45,4.79-0.41,9.6-0.07,14.39c0.68,9.59,0.69,19.17,0,28.76c-0.19,2.71-0.33,5.46-0.05,8.15c0.83,7.84,0.46,15.65-0.12,23.48
		c-0.23,3.15-1.19,5.91-3.05,8.43c-2.47,3.34-4.87,6.74-7.37,10.06c-0.66,0.88-1.55,1.6-2.4,2.31c-1.11,0.91-2.35,1.67-3.43,2.61
		c-5.94,5.2-12.57,9.36-19.51,13.04c-15.69,8.31-31.43,16.55-47.15,24.81c-0.85,0.45-1.71,0.87-2.6,1.23
		c-1.67,0.68-3.17,0.35-4.3-1.07c-0.79-1-1.49-2.08-2.15-3.17c-2.07-3.42-4.1-6.87-6.16-10.3c-12.09-20.17-24.17-40.35-36.29-60.51
		c-5.11-8.5-10.29-16.95-15.47-25.4c-1.59-2.59-3.21-5.16-4.97-7.63c-0.97-1.37-2.51-1.35-3.78-0.25c-1.42,1.22-1.86,2.58-1.22,4.28
		c0.39,1.04,0.91,2.05,1.52,2.99c3.22,4.96,5.77,10.35,9.57,14.94c0.6,0.73,1.03,1.62,1.42,2.49c1.89,4.26,4.37,8.17,6.97,12.02
		c2.15,3.18,4.29,6.37,6.29,9.65c7.65,12.57,15.26,25.17,22.86,37.77c5.04,8.36,10.04,16.73,15.06,25.1
		c0.33,0.55,0.68,1.09,0.93,1.68c0.59,1.36,0.36,2.47-0.81,3.43c-0.86,0.71-1.84,1.27-2.75,1.93c-12.89,9.43-26.69,17.68-37.79,29.4
		c-0.11,0.12-0.23,0.22-0.36,0.32c-4.02,2.97-7.31,6.68-10.61,10.39c-3.92,4.39-4.67,4.49-9.61,1.16
		c-4.77-3.22-9.48-6.54-14.28-9.73c-3.99-2.66-8.18-5.02-12.08-7.81c-4.95-3.55-9.93-7.01-15.17-10.11c-1.92-1.14-3.8-2.37-5.6-3.7
		c-10.43-7.72-21.43-14.57-32.22-21.74c-0.79-0.53-1.64-1.01-2.51-1.38c-1.08-0.46-2.22-0.02-2.94,0.98
		c-1.07,1.48-1.04,3.09,0.29,4.33c1.04,0.97,2.24,1.8,3.44,2.6c23.56,15.71,47.14,31.4,70.71,47.09c2.26,1.51,4.63,2.87,6.82,4.47
		c3.56,2.6,3.81,4.6,1.2,8.01c-0.29,0.38-0.62,0.73-0.93,1.1c-5.25,6.27-10.05,12.85-14.13,19.94c-3.43,5.96-6.91,11.9-10.28,17.9
		c-1.64,2.93-3.27,5.89-4.55,8.98c-6.37,15.37-12.92,30.67-17.88,46.58c-0.52,1.68-1.18,3.31-1.88,4.92
		c-0.65,1.51-1.68,2.8-3.26,3.37c-3.98,1.44-8.08,1.91-12.25,0.92c-1.71-0.41-2.8-1.61-3.04-3.34c-0.22-1.57-0.26-3.19-0.26-4.78
		c-0.01-11.04,0.02-22.08,0.03-33.12c0-1.6,0.04-3.21-0.11-4.8c-0.24-2.63-1.3-3.81-3.96-3.86c-6.4-0.12-12.8-0.04-19.19-0.04
		c-0.16,0-0.32,0.02-0.48,0.05c-2,0.36-3.22,1.41-3.49,3.41c-0.23,1.73-0.22,3.51-0.22,5.26c-0.01,24.16,0,48.32,0,72.48
		c0,1.12,0.04,2.24-0.02,3.36c-0.17,3.3-0.92,4.07-4.25,4.66c-5.76,1.03-11.49,0.07-17.23-0.21c-1.71-0.08-2.59-1.05-2.8-2.77
		c-0.21-1.74-0.23-3.51-0.23-5.27c0.02-21.92,0.07-43.84,0.08-65.76c0.02-151.2,0.04-302.39,0.02-453.59c0-2.81,0.67-5.71-0.62-8.44
		c-3.07,1.15-4.2,4.11-5.89,6.49c-2.56,3.6-5.68,6.5-9.6,8.5c-3.13,1.6-5.96,3.73-9.3,4.97c-1.78,0.66-2.77,2.18-2.94,4.07
		c-0.17,1.91-0.23,3.83-0.23,5.75c-0.01,18.4,0.02,36.8,0.02,55.2c0,157.76,0,315.51,0,473.27c0,0.96-0.02,1.92,0.04,2.88
		c0.23,3.25,1.14,4.17,4.44,4.4c1.59,0.11,3.2,0.05,4.8,0.08c2.72,0.05,5.44,0.04,8.16,0.16c12.95,0.57,25.9,0.48,38.86,0.04
		c7.83-0.27,15.68-0.17,23.51-0.23c2.69-0.02,5.01,0.89,6.92,2.81c1.01,1.02,2.06,2.02,3.1,3.01c7.18,6.85,14.35,13.69,21.54,20.53
		c0.58,0.55,1.19,1.06,1.83,1.54c0.73,0.54,1.59,0.15,1.79-0.8c0.13-0.63,0.18-1.27,0.27-1.9c0.99-6.32,1.87-12.66,3-18.96
		c0.93-5.22,2.03-5.92,7.12-5.13c10.43,1.61,20.85,3.33,31.29,4.86c10.29,1.51,20.58,2.98,30.9,4.21
		c13.18,1.56,26.4,2.79,39.59,4.29c10.81,1.23,21.67,2.01,32.53,2.37c14.38,0.48,28.76,1.45,43.17,1.23
		c0.64-0.01,1.28,0.01,1.92,0.03c5.7,0.23,6.89,1.38,6.27,6.99c-1,9.06-1.6,18.17-3.2,27.16c-0.28,1.57-0.48,3.17-0.49,4.76
		c-0.02,4.34-0.69,8.6-1.34,12.87c-0.27,1.74-0.52,3.48-0.69,5.23c-1.2,12.1-2.28,24.2-3.59,36.29c-1.07,9.85-2.4,19.67-3.6,29.51
		c-0.16,1.27-0.26,2.55-0.4,3.82c-0.89,8.11-1.78,16.21-2.69,24.32c-0.12,1.11-0.28,2.23-0.58,3.3c-0.55,1.94-2.09,2.51-3.67,1.37
		c-0.9-0.65-1.73-1.43-2.51-2.22c-3.04-3.11-6.45-5.74-10.14-8.03c-5.03-3.12-10.09-6.19-15.15-9.26
		c-3.43-2.08-7.01-3.83-10.74-5.31c-2.38-0.94-4.68-2.07-6.99-3.17c-6.36-3.04-12.89-5.67-19.66-7.6
		c-14.16-4.02-28.37-7.84-42.56-11.75c-2.62-0.72-5.26-1.29-7.97-1.65c-3.48-0.46-6.98-1.01-10.38-1.9
		c-9.93-2.62-20.13-3.74-30.22-5.28c-9.62-1.48-19.21-3.27-28.93-4.25c-7.47-0.75-14.82-2.46-22.33-3.01
		c-7.17-0.53-14.32-1.39-21.48-2.11c-10.82-1.09-21.63-2.23-32.46-3.27c-10.02-0.97-20.06-1.79-30.08-2.79
		c-5.25-0.52-10.46-1.65-15.71-1.85c-8.97-0.33-17.77-2.33-26.75-2.33c-1.11,0-2.22-0.27-3.33-0.39c-7.47-0.8-14.94-1.63-22.41-2.37
		c-5.73-0.57-11.47-0.96-17.2-1.58c-5.88-0.63-11.73-1.79-17.62-2.1c-8.5-0.45-16.85-1.78-25.23-3.07c-1.1-0.17-2.19-0.45-3.25-0.81
		c-0.36-0.12-0.81-0.64-0.82-0.99c-0.01-0.38,0.34-0.93,0.69-1.15c1.22-0.76,2.51-1.41,3.76-2.11c13.64-7.68,26.02-16.9,35.63-29.45
		c5.27-6.88,10.34-13.99,13.37-22.11c3.28-8.8,7.08-17.54,7.79-27.12c0.02-0.32,0.1-0.63,0.18-0.94c0.61-2.47,1.78-3.57,4.32-3.74
		c2.07-0.14,4.16-0.06,6.24-0.06c11.36-0.02,22.72-0.33,34.07,0.43c1.42,0.09,2.88-0.07,4.29-0.33c2.5-0.46,3.15-1.35,3.09-4
		c-0.08-3.04-0.34-6.07-0.34-9.11c-0.02-57.12-0.02-114.24-0.01-171.36c0-1.92-0.03-3.84,0.09-5.76c0.87-13.43,0.25-26.87,0.39-40.3
		c0.01-1.11-0.07-2.25-0.28-3.34c-0.54-2.75-1.79-3.84-4.54-4.07c-0.95-0.08-1.92-0.03-2.88-0.03c-4.48,0-8.96,0.01-13.44,0.02
		c-1.12,0-2.25-0.05-3.36,0.06c-2.37,0.23-3.5,1.24-3.77,3.58c-0.21,1.9-0.19,3.83-0.19,5.75c0.01,48.64,0.04,97.28,0.05,145.92
		c0,14.56-0.02,29.12-0.03,43.68c0,1.28,0.04,2.56-0.05,3.84c-0.27,3.88-1.53,5.13-5.3,5.34c-0.64,0.04-1.28,0-1.92,0.01
		c-3.2,0.02-6.41-0.08-9.6,0.08c-5.63,0.28-11.16-0.73-16.75-0.97c-1.78-0.08-3.45-0.71-5.01-1.55c-1.69-0.91-3.33-1.91-4.97-2.89
		C2177.64,1075.48,2173.82,1073.19,2169.36,1070.52z M1863.42,1250.32c-3.8-0.08-5.05,0.67-6.35,3.75c-1.19,2.8-2.28,5.63-3.41,8.46
		c-0.12,0.3-0.24,0.59-0.33,0.9c-0.8,2.63-0.09,4.04,2.53,4.61c1.87,0.41,3.79,0.62,5.68,0.9c2.37,0.34,4.79,0.48,7.11,1.03
		c8.43,1.98,17.1,2.39,25.61,3.8c8.35,1.38,16.81,2.18,25.22,3.23c22.85,2.84,45.49,7.14,68.35,9.94c7.78,0.95,15.54,2.06,23.3,3.15
		c15.2,2.12,30.41,4.22,45.6,6.43c8.7,1.26,17.29,3.27,26.05,4.13c18.31,1.79,36.43,4.93,54.64,7.42
		c14.42,1.97,28.81,4.16,43.21,6.21c14.88,2.12,29.77,4.22,44.65,6.3c10.45,1.46,20.91,2.87,31.37,4.34
		c10.45,1.47,20.9,2.95,31.34,4.48c13.13,1.92,26.25,3.97,39.39,5.82c13.46,1.9,26.94,3.6,40.41,5.46
		c14.73,2.03,29.46,4.13,44.18,6.24c16.62,2.38,33.23,4.83,49.85,7.21c14.56,2.09,29.13,4.12,43.7,6.18
		c14.89,2.1,29.77,4.2,44.66,6.29c8.55,1.2,17.11,2.35,25.66,3.6c2.12,0.31,4.14,0.47,5.98-0.86c1.07-0.77,2.07-0.61,3.09,0.1
		c1.55,1.08,3.25,1.15,5.06,0.82c1.57-0.28,3.17-0.4,4.76-0.63c23.59-3.39,47.17-6.82,70.76-10.15c24.07-3.4,48.15-6.68,72.23-10.04
		c22.65-3.17,45.3-6.32,67.93-9.58c28.8-4.14,57.59-8.38,86.39-12.55c8.23-1.19,16.48-2.26,24.72-3.36
		c8.88-1.19,17.81-2.03,26.62-3.59c11.35-2,22.76-3.49,34.16-5.09c21.85-3.08,43.73-5.99,65.58-9.07
		c18.84-2.66,37.65-5.51,56.49-8.19c18.52-2.63,37.07-5.1,55.6-7.73c19.16-2.72,38.29-5.59,57.45-8.31
		c12.98-1.84,25.98-3.56,38.98-5.3c6.02-0.81,12.07-1.45,18.07-2.35c9.48-1.42,18.94-3.02,28.41-4.5c4.11-0.64,8.24-1.14,12.34-1.81
		c2.38-0.39,3.35-1.87,2.55-4.18c-1.26-3.62-2.72-7.17-4.22-10.71c-0.83-1.97-2.5-2.88-4.62-2.78c-1.43,0.07-2.86,0.28-4.28,0.49
		c-18.2,2.64-36.39,5.32-54.6,7.91c-15.67,2.23-31.36,4.36-47.04,6.54c-9.98,1.39-19.96,2.75-29.94,4.17
		c-14.09,2.01-28.28,3.31-42.24,6.15c-1.25,0.25-2.52,0.43-3.79,0.6c-8.24,1.13-16.48,2.22-24.72,3.39
		c-16.78,2.37-33.56,4.8-50.35,7.18c-12.35,1.75-24.71,3.47-37.06,5.21c-12.51,1.77-25.01,3.58-37.53,5.31
		c-12.67,1.76-25.36,3.4-38.03,5.17c-16.79,2.35-33.57,4.77-50.35,7.18c-19.31,2.77-38.62,5.53-57.93,8.33
		c-16.3,2.36-32.59,4.78-48.9,7.11c-19.16,2.73-38.33,5.37-57.49,8.07c-21.7,3.05-43.39,6.12-65.08,9.18
		c-20.11,2.83-40.24,5.55-60.33,8.52c-8.15,1.21-16.18,1.48-24.33,0c-7.71-1.39-15.49-2.39-23.25-3.48
		c-15.68-2.2-31.37-4.32-47.05-6.51c-12.2-1.7-24.39-3.43-36.58-5.18c-16.46-2.36-32.92-4.76-49.38-7.14
		c-14.56-2.1-29.12-4.22-43.69-6.28c-15.04-2.13-30.09-4.19-45.14-6.32c-10.29-1.46-20.57-3-30.86-4.45
		c-7.76-1.1-15.54-2.05-23.29-3.18c-15.82-2.31-31.63-4.76-47.46-7.02c-15.2-2.17-30.43-4.12-45.63-6.26
		c-21.22-2.98-42.43-6.06-63.65-9.05c-20.27-2.86-40.55-5.61-60.82-8.49c-11.24-1.6-22.44-3.43-33.68-5.04
		c-26.91-3.85-53.83-7.64-80.75-11.46c-22.32-3.17-44.65-6.35-66.97-9.52C1869.02,1251.04,1866,1250.67,1863.42,1250.32z
		 M2917.36,590.15c-0.36,0-0.73,0-1.09,0c-0.02,2.06-0.06,4.11-0.06,6.17c0,92.77-0.01,185.54-0.01,278.31
		c0,76.62,0,153.23,0,229.85c0,2.08-0.03,4.16,0.14,6.23c0.2,2.5,1.11,3.42,3.65,3.54c3.19,0.15,6.4,0.09,9.59,0.09
		c1.44,0,2.89,0.03,4.31-0.11c2.24-0.22,3.06-1.08,3.26-3.38c0.14-1.59,0.12-3.2,0.12-4.79c0.03-61.58,0.07-123.16,0.09-184.74
		c0.01-14.56,0.05-29.11-0.08-43.67c-0.03-3.96,1.15-7.05,4.16-9.72c3.58-3.18,6.96-6.61,10.24-10.11
		c8.59-9.14,15.77-19.26,21.46-30.5c3.69-7.3,5.47-15.04,6.16-23.02c0.93-10.73,0.04-21.38-2.49-31.91
		c-3.73-15.52-9.85-30.09-17.49-44.01c-6.55-11.94-12.43-24.18-17.53-36.79c-6.38-15.76-11.04-32.05-14.24-48.75
		c-2.65-13.82-5.09-27.68-7.69-41.51C2919.17,597.59,2918.21,593.88,2917.36,590.15z M2500.82,612.93c-0.03,0-0.05,0-0.08,0
		c0,5.44,0.01,10.88-0.01,16.32c0,1.12-0.04,2.24-0.15,3.35c-0.17,1.79-1.16,2.96-2.9,3.39c-1.24,0.31-2.5,0.55-3.76,0.74
		c-16.31,2.4-32.45,5.66-48.48,9.49c-7.93,1.9-15.83,3.96-23.75,5.9c-1.54,0.38-3.13,0.66-4.71,0.76c-1.41,0.09-2.49-0.8-2.71-2.21
		c-0.25-1.57-0.33-3.18-0.33-4.77c-0.01-9.44,0.03-18.88,0.04-28.31c0-1.44,0.05-2.89-0.08-4.32c-0.3-3.2-1.73-4.15-4.91-3.18
		c-1.68,0.51-3.29,1.24-4.91,1.93c-14.58,6.16-24.85,17.14-33.46,29.97c-0.53,0.79-0.87,1.71-1.28,2.57
		c-2.9,6.08-5.37,12.32-6.73,18.95c-0.61,2.99-1.98,5.25-4.86,6.68c-3,1.5-3.81,3.99-2.73,7.18c0.34,1.02,1.15,1.5,2.24,1.42
		c0.48-0.04,0.96-0.11,1.41-0.24c5.97-1.77,11.94-3.54,17.91-5.33c2.45-0.74,4.86-1.61,7.34-2.25c9.43-2.47,18.78-5.26,28.17-7.87
		c19.74-5.5,39.79-9.63,59.75-14.14c8.89-2.01,17.93-3.31,26.83-5.29c6.89-1.54,13.83-2.59,20.83-3.31
		c10.81-1.11,21.63-2.24,32.46-3.22c8.12-0.74,16.24-1.53,24.4-1.58c16.95-0.09,33.9-0.47,50.84,0.75
		c7.97,0.57,15.95,1.03,23.9,1.92c6.83,0.77,13.66,1.62,20.5,2.28c9.09,0.88,17.99,2.91,26.99,4.34c4.41,0.7,8.73,1.97,13.12,2.88
		c7.99,1.65,16.01,3.13,23.98,4.86c6.56,1.42,13.06,3.13,19.6,4.66c12.77,2.97,25.48,6.23,38.08,9.87
		c8.14,2.35,16.18,5.06,24.32,7.44c4.43,1.3,9.14,1.72,13.12,4.37c0.13,0.09,0.29,0.12,0.45,0.17c2.12,0.7,3.78-0.23,4.41-2.42
		c0.53-1.86,0.14-3.53-1.13-4.91c-0.74-0.81-1.63-1.66-2.63-2.02c-2.8-1.03-3.7-3.15-4.25-5.84c-2.14-10.5-6.64-19.98-12.72-28.76
		c-8.11-11.72-19.21-19.5-32.36-24.57c-1.04-0.4-2.13-0.7-3.22-0.9c-1.19-0.22-2.29,0.49-2.57,1.64c-0.23,0.92-0.37,1.89-0.37,2.84
		c0.03,4.8-0.09,9.61,0.23,14.39c0.41,6.24,0.28,12.47,0.38,18.71c0.01,0.8-0.03,1.6-0.16,2.39c-0.42,2.6-1.67,3.56-4.32,3.32
		c-0.63-0.06-1.27-0.19-1.89-0.34c-6.07-1.44-12.12-2.95-18.21-4.33c-3.21-0.73-4.93-2.58-5.49-5.83c-0.46-2.67-1.1-5.34-1.94-7.91
		c-5.79-17.65-24.18-38.15-47.81-41.14c-2.53-0.32-5.07-0.63-7.61-0.88c-2.07-0.21-4.18-0.14-6.21-0.53
		c-6.62-1.28-13.35-1.57-20.04-2.02c-13.72-0.93-27.42-2.07-41.18-2.35c-3.67-0.07-7.33-0.53-11-0.84
		c-0.63-0.05-1.34-0.24-1.41-1.03c-0.06-0.72,0.51-1.16,1.08-1.42c2.04-0.93,4.09-1.83,6.15-2.68c15.08-6.24,30.13-12.53,45.66-17.6
		c3.04-0.99,6.13-1.85,9.08-3.06c3.11-1.28,6.19-2.57,9.44-3.49c1.67-0.48,3.27-1.29,4.81-2.11c1.09-0.58,1.5-1.68,1.11-2.89
		c-1.46-4.53-2.44-7.59-8.9-5.03c-0.45,0.18-0.9,0.35-1.35,0.49c-9.48,2.94-18.5,7.08-27.89,10.31
		c-21.33,7.35-41.88,16.69-62.45,25.92c-0.29,0.13-0.57,0.29-0.87,0.4c-3.82,1.49-4.81,4.23-3.85,9.14c0.23,1.18,1.1,1.96,2.3,2.19
		c0.94,0.18,1.9,0.28,2.86,0.28c8.16,0.05,16.3,0.43,24.45,0.72c11.34,0.4,22.7,0.19,34.02,1.34c6.68,0.67,13.4,0.99,20.07,1.72
		c7.47,0.81,14.89,2.05,22.43,2.2c2.71,0.05,5.42,0.49,8.1,0.91c4.59,0.72,9.11,1.78,13.33,3.82c13.45,6.5,22.06,17.12,26.48,31.26
		c0.28,0.91,0.48,1.87,0.57,2.81c0.16,1.66-0.86,2.77-2.57,2.72c-1.27-0.04-2.54-0.27-3.79-0.51c-8.63-1.69-17.24-3.51-25.89-5.08
		c-11.8-2.14-23.61-4.29-35.54-5.56c-6.52-0.69-13.06-1.18-19.57-1.92c-13.03-1.48-26.09-2.73-39.19-3.24
		c-16.63-0.64-33.26-0.08-49.84,1.37c-2.06,0.18-4.16,0.26-6.22,0.13c-1.91-0.12-2.92-1.13-3.17-3.01
		c-0.21-1.58-0.21-3.19-0.22-4.79c-0.01-9.12,0.01-18.24,0-27.35c0-1.44-0.02-2.89-0.25-4.3c-0.39-2.37-2.21-3.57-4.53-3.14
		c-2.07,0.39-3.51,1.57-4.01,3.64c-0.26,1.08-0.38,2.21-0.37,3.32c0.05,9.76,0.15,19.51,0.23,29.27c0.01,1.27,0.06,2.56-0.11,3.82
		c-0.31,2.3-1.68,3.75-3.95,4.28c-0.77,0.18-1.58,0.26-2.37,0.35c-4.76,0.56-9.53,1.12-14.29,1.67c-2.7,0.31-5.4,0.67-8.11,0.87
		c-1.72,0.13-2.79-0.71-3.04-2.39c-0.23-1.57-0.29-3.18-0.29-4.78c-0.03-9.44-0.01-18.88-0.02-28.31c0-1.44,0.01-2.89-0.15-4.31
		c-0.27-2.31-1.57-3.48-3.75-3.57c-2.11-0.09-3.76,1.07-4.22,3.14c-0.24,1.08-0.28,2.22-0.28,3.33
		C2500.81,602.06,2500.82,607.5,2500.82,612.93z M2254.98,590.23c-1.49,1.59-1.54,3.37-1.87,4.99c-3.29,15.97-6.55,31.95-9.82,47.92
		c-5.31,25.91-14.63,50.33-27.51,73.39c-4.21,7.55-8.25,15.18-11.89,23.01c-6.04,12.96-10.87,26.31-12.59,40.61
		c-0.36,3.02-0.77,6.03-1.1,9.05c-1.48,13.32-0.04,26.15,6.13,38.27c5.06,9.94,6.69,20.61,6.12,31.66c-0.32,6.1,0.39,6.94,6.63,6.97
		c12.48,0.05,24.95,0.05,37.43,0.07c0.8,0,1.6,0,2.4-0.04c4.77-0.24,5.61-1.02,5.66-5.71c0.07-6.56,0.02-13.12,0.01-19.67
		c0-0.8-0.04-1.61-0.18-2.39c-0.27-1.58-1.24-2.61-2.82-2.86c-1.26-0.2-2.54-0.22-3.82-0.29c-2.39-0.14-4.79-0.32-7.18-0.38
		c-2.68-0.07-4.45-1.38-5.77-3.64c-4.44-7.6-8.81-15.22-12.07-23.43c-1.6-4.02-3.03-8.09-4.07-12.29
		c-2.54-10.23-3.45-20.49-0.48-30.82c0.31-1.07,0.57-2.18,0.7-3.28c0.9-7.6,4.13-14.4,7.26-21.23c0.73-1.6,1.6-3.14,2.25-4.76
		c2.38-5.94,4.72-11.89,7.03-17.86c2.89-7.46,5.7-14.94,7.77-22.68c1.57-5.87,3.27-11.71,4.88-17.57c0.34-1.23,0.62-2.48,0.81-3.74
		c2.1-13.76,3.68-27.58,4.63-41.46c0.85-12.28,1.4-24.58,2.05-36.87C2255.64,593.66,2255.93,592.06,2254.98,590.23z
		 M2824.76,1177.07c0.69,0,1.65-0.03,2.61,0c7.77,0.24,13.61-4.04,19.37-8.4c0.98-0.75,1.68-1.92,2.38-2.99
		c2.3-3.51,3.72-7.36,4.76-11.45c2.01-7.88-0.43-14.81-5.14-20.65c-6.59-8.17-15.72-12.35-26.22-11.57
		c-12.5,0.93-21.45,7.65-26.48,19.25c-1.84,4.25-1.98,8.69-0.95,13.18c0.94,4.09,2.73,7.84,4.78,11.47
		c1.62,2.87,3.89,5.04,6.75,6.64C2812.18,1175.66,2818.05,1177.51,2824.76,1177.07z M2412.2,588.7c0.09-4.51-2.91-7.38-6.9-6.18
		c-3.86,1.15-6.6,3.84-7.89,7.74c-0.52,1.56-0.23,3.17,0.49,4.67c1,2.09,2.67,3.11,4.98,3.07
		C2407.41,597.93,2412.1,593.24,2412.2,588.7z M2384.99,602.73c5.09-0.16,9.81-6.06,8.83-11.05c-0.59-3-3.36-4.96-6.35-4.49
		c-3.95,0.62-7.96,4.71-8.54,8.71C2378.37,599.79,2381.08,602.85,2384.99,602.73z M2527.7,569.07c-0.18,3.12,2.02,6.02,5.1,6.58
		c2.44,0.44,4.78-0.02,6.88-1.34c2.58-1.63,3.69-5.24,2.72-8.52c-0.74-2.52-3.78-4.55-6.71-4.47
		C2532.23,561.41,2527.9,565.61,2527.7,569.07z M2554.19,574.2c2.99,0.05,5.52-1.3,6.89-4.4c1.12-2.53,0.79-4.98-0.97-7.14
		c-1.56-1.91-6.39-3.02-8.84-2.13c-2.99,1.07-5.09,5.14-4.46,8.63C2547.38,572.33,2550.03,574.23,2554.19,574.2z M2502.18,664.38
		c4.69,0.09,7.97-2.39,9.04-6.84c0.36-1.47,0.21-2.85-0.66-4.09c-1.35-1.94-3.2-3.03-5.61-3.07c-3.77-0.05-6.52,1.81-8.12,5.49
		C2494.81,660.57,2497.14,664.28,2502.18,664.38z"/>
	<path d="M2480.01,1050.15c21.44,0,42.88,0,64.32,0c1.28,0,2.56-0.03,3.84,0.06c3.75,0.27,5.17,1.45,6.02,5.01
		c0.26,1.09,0.34,2.22,0.58,3.31c2.02,8.88,6.92,15.74,14.68,20.48c14.03,8.57,32.74,3.23,40.19-13.26
		c0.98-2.17,1.54-4.54,2.23-6.83c0.41-1.38,0.65-2.81,1.05-4.19c0.8-2.78,2.71-4.26,5.58-4.47c1.43-0.11,2.88-0.13,4.32-0.13
		c41.44,0,82.88,0,124.32,0.01c1.44,0,2.88-0.03,4.32,0.06c4.08,0.25,5.58,1.44,6.92,5.41c0.26,0.76,0.45,1.53,0.66,2.31
		c1.74,6.49,3.49,12.98,5.23,19.47c0.21,0.77,0.45,1.54,0.59,2.32c0.5,2.78-0.1,3.94-2.78,4.65c-2.62,0.69-5.32,1.14-8,1.57
		c-19.11,3.11-38.32,5.48-57.56,7.54c-12.24,1.3-24.49,2.52-36.79,3.33c-12.45,0.82-24.91,1.37-37.36,1.98
		c-21.76,1.06-43.51,0.7-65.26,0.5c-9.26-0.09-18.52-0.91-27.78-1.45c-6.39-0.37-12.77-0.79-19.15-1.25
		c-16.43-1.17-32.87-2.09-49.21-4.37c-9.03-1.26-18.11-2.09-27.15-3.27c-9.36-1.22-18.7-2.54-28.02-3.99c-6.4-1-7.3-2.34-5.69-8.75
		c1.75-6.98,3.84-13.87,5.79-20.8c0.17-0.61,0.42-1.21,0.66-1.8c0.8-1.96,2.24-3.1,4.36-3.25c1.75-0.12,3.52-0.14,5.27-0.14
		c21.28-0.01,42.56-0.01,63.84-0.01C2480.01,1050.17,2480.01,1050.16,2480.01,1050.15z"/>
	<path d="M3237.95,1206.1c-0.09,1.83-0.64,2.79-1.77,3.26c-0.88,0.36-1.84,0.5-2.76,0.75c-15.46,4.16-31.11,7.38-46.88,10.16
		c-20.48,3.61-40.83,7.9-61.35,11.27c-21.78,3.59-43.56,7.16-65.42,10.24c-14.89,2.1-29.79,4.05-44.73,5.76
		c-10.48,1.2-20.91,2.87-31.39,4.17c-10,1.24-20.02,2.27-30.03,3.41c-8.9,1.02-17.79,2.03-26.68,3.11
		c-12.22,1.49-24.43,3.11-36.66,4.56c-10.32,1.23-20.64,2.59-31,3.36c-9.42,0.7-18.76,2.06-28.15,2.96
		c-11.94,1.14-23.82,2.79-35.69,4.48c-10.93,1.55-21.87,2.98-32.8,4.49c-35.52,4.89-70.83,10.9-105.48,20.27
		c-14.86,4.02-29.35,9.04-43.09,16.07c-3.13,1.6-6.17,3.39-9.27,5.05c-1.26,0.68-2.56,1.3-3.89,1.84c-0.35,0.14-1.02,0-1.28-0.27
		c-0.25-0.26-0.35-0.96-0.17-1.28c0.62-1.11,1.3-2.21,2.11-3.19c6.46-7.84,13.94-14.55,22.58-19.9
		c10.93-6.77,22.59-12.01,34.74-16.16c18.97-6.48,38.42-11.04,58.17-14.35c16.1-2.7,32.3-4.6,48.48-6.66
		c10.47-1.34,20.96-2.55,31.46-3.57c9.71-0.94,19.45-1.53,29.17-2.29c6.38-0.5,12.75-1.02,19.13-1.52c1.28-0.1,2.55-0.24,3.83-0.23
		c7.7,0.05,15.31-0.99,22.96-1.67c4.62-0.41,9.24-0.82,13.86-1.18c13.87-1.07,27.75-2.05,41.61-3.21
		c8.13-0.68,16.26-1.28,24.39-1.83c7.33-0.49,14.64-1.46,21.95-2.23c7.63-0.81,15.27-1.58,22.9-2.46c8.73-1,17.49-1.79,26.2-3
		c10.45-1.45,20.9-2.92,31.42-3.88c5.88-0.54,11.7-1.74,17.53-2.74c19.55-3.34,39.12-6.6,58.63-10.12
		c21.74-3.93,43.1-9.5,64.42-15.26c10.04-2.72,20.03-5.56,29.9-8.81c5.32-1.75,6-1.49,9.15,3.09c1.09,1.58,2.06,3.24,3.01,4.91
		C3237.61,1204.48,3237.98,1205.55,3237.95,1206.1z"/>
	<path d="M2615.26,1320.91c-0.39-0.04-0.73-0.01-1.01-0.13c-0.26-0.11-0.57-0.34-0.65-0.58c-0.08-0.25,0.01-0.72,0.19-0.84
		c1.2-0.78,2.42-1.55,3.69-2.21c9.41-4.87,19.28-8.59,29.39-11.7c22.67-6.97,45.77-12.04,69.1-16.18c18.43-3.27,36.95-5.9,55.5-8.39
		c16.48-2.21,33-4.13,49.51-6.15c14.76-1.8,29.52-3.6,44.29-5.33c6.99-0.82,13.99-1.45,20.98-2.22c9.69-1.07,19.38-2.22,29.07-3.3
		c7.95-0.88,15.9-1.65,23.84-2.59c7.62-0.9,15.22-2,22.83-2.94c7.62-0.94,15.25-1.72,22.86-2.71c6.18-0.8,12.38-1.6,18.56-2.25
		c15.44-1.62,30.71-4.39,46.08-6.42c16.8-2.22,33.63-4.29,50.38-6.88c17.37-2.69,34.67-5.9,51.99-8.93
		c7.72-1.35,15.43-2.78,23.13-4.23c2.67-0.5,5.3-1.17,7.95-1.79c1.71-0.4,3.41-0.87,5.13-1.24c15.32-3.31,30.64-6.61,45.97-9.9
		c1.56-0.34,3.13-0.65,4.71-0.88c2.4-0.35,4.42,0.41,5.99,2.28c2.87,3.44,5.75,6.86,8.58,10.34c1.07,1.31,0.66,2.32-1.04,2.8
		c-0.77,0.21-1.56,0.37-2.34,0.49c-18.2,2.64-36.4,5.28-54.6,7.9c-11.71,1.69-23.41,3.52-35.15,4.99
		c-18.25,2.3-36.39,5.35-54.58,7.98c-16.46,2.38-32.92,4.76-49.38,7.15c-11.71,1.7-23.41,3.46-35.13,5.13
		c-10.45,1.49-20.92,2.85-31.36,4.36c-16.3,2.35-32.59,4.76-48.88,7.16c-16.45,2.42-32.91,4.86-49.36,7.25
		c-7.75,1.13-15.52,2.16-23.28,3.29c-11.39,1.65-22.75,3.56-34.17,4.96c-22.22,2.73-44.3,6.48-66.44,9.71
		c-23.26,3.4-46.54,6.69-69.8,10.06c-20.89,3.03-41.78,6.1-62.67,9.13C2628.5,1319.08,2621.84,1319.98,2615.26,1320.91z"/>
	<path d="M2567.45,1319.24c0.07,0.45-0.68,1.17-1.23,1.11c-1.33-0.14-2.38-0.89-3.5-1.51c-8.28-4.56-16.87-8.45-25.66-11.91
		c-18.52-7.28-37.67-12.35-57.14-16.29c-23.05-4.66-46.27-8.3-69.52-11.79c-20.09-3.01-40.22-5.62-60.36-8.19
		c-14.59-1.86-29.21-3.46-43.82-5.17c-9.69-1.13-19.36-2.43-29.07-3.33c-7.81-0.72-15.53-2.01-23.3-2.99
		c-6.98-0.88-14-1.43-20.99-2.16c-10.18-1.06-20.36-2.04-30.52-3.24c-11.59-1.37-23.18-2.76-34.73-4.45
		c-15.03-2.2-30.16-3.62-45.12-6.29c-7.71-1.38-15.53-2.06-23.28-3.21c-17.88-2.63-35.76-5.23-53.6-8.07
		c-22.74-3.63-45.42-7.61-67.99-12.21c-16.93-3.45-33.8-7.12-50.57-11.29c-6.65-1.65-6.67-1.76-3.14-7.7
		c0.9-1.51,1.76-3.05,2.74-4.51c1.63-2.42,2.49-2.73,5.23-1.91c4.9,1.47,9.78,3.02,14.67,4.51c37.39,11.38,75.41,20.01,113.96,26.39
		c12.62,2.09,25.21,4.35,37.85,6.29c8.21,1.26,16.49,2.09,24.75,3.11c8.89,1.1,17.77,2.24,26.66,3.28
		c7.78,0.91,15.57,1.71,23.36,2.54c7.31,0.78,14.63,1.53,21.94,2.28c6.36,0.65,12.71,1.31,19.1,1.7c10.21,0.61,20.4,1.63,30.6,2.39
		c6.05,0.45,12.06,1.34,18.17,1.4c4.78,0.05,9.56,0.66,14.32,1.24c2.7,0.33,5.4,0.52,8.12,0.68c8.3,0.48,16.59,1.02,24.89,1.56
		c5.9,0.39,11.8,0.79,17.7,1.24c6.38,0.48,12.75,1.02,19.12,1.55c4.46,0.37,8.92,0.79,13.38,1.13c18.18,1.36,36.29,3.42,54.37,5.75
		c19.99,2.58,39.91,5.62,59.63,9.77c22.01,4.63,43.32,11.28,63.24,21.97c6.37,3.42,12.37,7.34,17.92,11.98
		c3.95,3.3,7.33,7.13,10.42,11.23C2566.72,1317.05,2567.37,1317.97,2567.45,1319.24z"/>
	<path d="M2482.31,1044.51c-20.62,0-41.25,0-61.87,0c-2.4,0-4.8,0.1-7.16-0.45c-1.97-0.46-2.71-1.49-2.31-3.47
		c0.28-1.4,0.75-2.77,1.22-4.13c2.05-6.07,4.69-11.9,7.32-17.72c5.53-12.24,11.57-24.23,18.55-35.72
		c4.66-7.67,10.17-14.73,15.63-21.82c0.39-0.51,0.8-1.01,1.25-1.45c1.72-1.68,3.07-1.99,5.19-0.86c1.83,0.97,3.55,2.16,5.28,3.31
		c27.13,18.1,54.26,36.21,81.39,54.31c2.93,1.95,5.87,3.87,8.8,5.83c0.93,0.62,1.88,1.23,2.72,1.96c1.87,1.61,2.1,2.82,1.01,5.06
		c-0.91,1.87-2,3.65-2.82,5.56c-0.82,1.9-1.51,3.87-2.07,5.87c-0.66,2.34-2.16,3.47-4.49,3.59c-1.91,0.1-3.83,0.15-5.75,0.15
		C2523.56,1044.51,2502.94,1044.51,2482.31,1044.51z"/>
	<path d="M1920,1209.95c0.81,0.17,2.11,0.3,3.29,0.73c12.98,4.77,26.54,7.14,40.01,9.9c8.93,1.83,17.8,3.93,26.76,5.61
		c27.82,5.21,55.69,10.14,83.7,14.23c19.14,2.8,38.29,5.61,57.46,8.22c13.78,1.88,27.6,3.42,41.4,5.14
		c4.76,0.59,9.5,1.34,14.26,1.89c5.72,0.66,11.45,1.13,17.17,1.78c4.29,0.49,8.56,1.15,12.84,1.69c8.56,1.07,17.13,2.15,25.7,3.16
		c12.7,1.51,25.4,2.99,38.11,4.43c10.17,1.15,20.34,2.17,30.51,3.31c9.22,1.03,18.42,2.13,27.63,3.23c10,1.19,20,2.37,30,3.63
		c12.53,1.58,25.07,3.13,37.58,4.88c21.86,3.06,43.63,6.69,65.22,11.27c18.78,3.98,37.53,8.07,55.73,14.32
		c7.87,2.7,15.59,5.8,23.06,9.49c1.39,0.68,3.65,0.75,3.54,3.21c-1.53,1.15-3.09,0.21-4.6-0.01c-9.97-1.43-19.93-2.92-29.9-4.4
		c-25.46-3.8-50.92-7.59-76.38-11.4c-26.25-3.93-52.49-7.9-78.75-11.83c-9.33-1.4-18.69-2.57-28-4.12c-8.2-1.36-16.37-2.9-24.6-4.06
		c-16.15-2.28-32.28-4.65-48.42-7.03c-15.82-2.33-31.63-4.73-47.44-7.09c-14.23-2.13-28.5-4.03-42.68-6.41
		c-25.87-4.35-51.88-7.68-77.8-11.64c-17.39-2.66-34.75-5.44-52.14-8.1c-6-0.92-12.05-1.55-18.06-2.46
		c-17.86-2.72-35.67-5.73-53.56-8.23c-19.8-2.77-39.57-5.68-59.3-8.86c-1.1-0.18-2.22-0.35-3.27-0.69
		c-1.39-0.45-2.02-1.98-1.17-3.07c2.37-3.01,4.81-5.97,7.34-8.85C1916.32,1210.59,1917.86,1210.02,1920,1209.95z"/>
	<path d="M2523.89,1280.86c-0.23,0.19-0.48,0.55-0.68,0.53c-1.1-0.16-2.22-0.3-3.26-0.67c-3.77-1.34-7.56-2.63-11.24-4.18
		c-3.56-1.5-7.2-2.63-10.93-3.57c-19.54-4.94-39.16-9.58-59.11-12.56c-11.38-1.7-22.83-2.99-34.26-4.33
		c-8.41-0.99-16.85-1.81-25.28-2.61c-8.75-0.83-17.52-1.55-26.28-2.28c-10.35-0.86-20.71-1.69-31.07-2.52
		c-4.78-0.38-9.56-0.79-14.35-1.11c-11.33-0.76-22.66-1.44-33.98-2.24c-11.16-0.79-22.32-1.62-33.47-2.54
		c-12.27-1.01-24.54-2.05-36.79-3.23c-10.5-1.01-20.98-2.24-31.48-3.38c-6.52-0.7-13.04-1.37-19.55-2.11
		c-14.45-1.64-28.92-3.13-43.33-5.03c-11.89-1.57-23.71-3.59-35.55-5.51c-21.95-3.55-43.79-7.67-65.48-12.58
		c-23.57-5.33-46.92-11.45-69.93-18.83c-1.52-0.49-3.04-1-4.46-1.72c-1.47-0.74-1.95-2.01-1.64-3.63c0.12-0.62,0.31-1.24,0.53-1.84
		c1.47-4.06,2.95-8.11,4.44-12.16c0.22-0.6,0.47-1.19,0.8-1.74c0.83-1.42,2.03-1.95,3.67-1.5c1.07,0.29,2.12,0.72,3.12,1.21
		c29.08,14.22,59.98,22.96,91.39,30.09c17.47,3.96,35.05,7.38,52.75,10.15c11.53,1.8,23.09,3.39,34.61,5.22
		c14.38,2.28,28.84,3.75,43.33,5.05c14.01,1.26,27.99,2.87,41.98,4.31c10.81,1.11,21.64,2.16,32.45,3.28
		c5.57,0.58,11.12,1.26,16.69,1.85c5.72,0.61,11.44,1.22,17.18,1.73c12.58,1.1,25.18,2,37.75,3.22c13.68,1.32,27.34,2.96,41.01,4.37
		c13.21,1.36,26.38,3.01,39.49,5.08c28.29,4.45,56.47,9.46,84.08,17.24c8.31,2.34,16.61,4.79,24.64,7.98
		c6.54,2.6,12.98,5.43,19.45,8.19c0.87,0.37,1.65,0.96,2.43,1.51C2523.78,1280.16,2523.79,1280.57,2523.89,1280.86z"/>
	<path d="M2683.83,1044.58c-20.32,0-40.63,0.01-60.95-0.02c-2.07,0-4.16-0.12-6.21-0.38c-2.45-0.32-4.15-1.74-4.62-4.23
		c-0.51-2.69-1.47-5.23-2.41-7.78c-1.03-2.76-0.36-5.03,1.96-6.8c1.14-0.87,2.32-1.7,3.53-2.49c29.73-19.43,59.45-38.85,89.19-58.26
		c1.07-0.7,2.17-1.36,3.31-1.93c2.12-1.04,4.07-0.67,5.68,1.03c0.87,0.92,1.64,1.97,2.38,3.01c8.82,12.4,16.97,25.19,23.09,39.2
		c2.95,6.73,6.49,13.21,9.06,20.12c1.34,3.6,2.59,7.22,3.84,10.85c0.41,1.21,0.77,2.45,1,3.7c0.39,2.17-0.49,3.45-2.63,3.72
		c-1.42,0.18-2.87,0.14-4.31,0.14c-20.64,0.01-41.27,0.01-61.91,0.01C2683.83,1044.51,2683.83,1044.55,2683.83,1044.58z"/>
	<path d="M2564.69,1330.97c-1.74-0.21-3.33-0.39-4.91-0.6c-13.32-1.77-26.63-3.54-39.94-5.3c-10.78-1.43-21.56-2.86-32.34-4.28
		c-13.16-1.73-26.32-3.46-39.48-5.2c-11.26-1.49-22.51-2.98-33.76-4.49c-12.84-1.72-25.68-3.44-38.51-5.17
		c-15.69-2.12-31.37-4.28-47.07-6.36c-13.47-1.79-26.96-3.5-40.44-5.23c-12.85-1.65-25.74-2.99-38.53-5.03
		c-15.48-2.48-31.11-3.8-46.58-6.34c-3.63-0.6-7.3-0.98-10.9-1.73c-6.14-1.26-12.42-1.1-18.59-1.98c-8.7-1.25-17.44-2.29-26.16-3.46
		c-15.53-2.08-31.06-4.18-46.59-6.29c-15.69-2.13-31.37-4.32-47.06-6.43c-15.69-2.11-31.39-4.15-47.08-6.23
		c-13.32-1.76-26.63-3.55-39.95-5.29c-13.48-1.76-26.96-3.48-40.44-5.22c-12.53-1.62-25.05-3.25-37.58-4.88
		c-0.32-0.04-0.64-0.06-0.95-0.15c-1.2-0.33-2.97-0.12-3.33-1.44c-0.46-1.66,1.34-2.35,2.45-3.15c3.37-2.44,6.84-4.74,10.19-7.21
		c2.32-1.71,4.76-2.39,7.65-1.92c5.52,0.9,11.08,1.62,16.61,2.45c20.88,3.12,41.75,6.25,62.63,9.38
		c11.54,1.73,23.08,3.51,34.62,5.23c23.88,3.56,47.77,7.11,71.65,10.65c20.09,2.98,40.18,5.92,60.27,8.95
		c15.97,2.41,31.92,4.96,47.89,7.38c7.27,1.1,14.57,2,21.85,3.08c21.04,3.11,42.07,6.28,63.1,9.41c22.15,3.29,44.3,6.54,66.44,9.84
		c20.72,3.09,41.43,6.26,62.15,9.36c24.36,3.65,48.72,7.25,73.07,10.89c22.62,3.38,45.23,6.8,67.84,10.19
		c3.48,0.52,6.97,0.97,10.44,1.56c1.88,0.32,3.79,0.73,5.14,2.31c0.67,0.77,0.35,2.13-0.61,2.3
		C2566.78,1330.79,2565.67,1330.86,2564.69,1330.97z"/>
	<path d="M3256.7,1231.7c2.02-0.04,3.32,0.07,4.44,0.76c3.69,2.25,7.24,4.71,10.54,7.49c0.9,0.76,0.64,1.93-0.45,2.23
		c-0.77,0.21-1.56,0.35-2.35,0.45c-17.28,2.26-34.57,4.5-51.85,6.76c-13.16,1.72-26.32,3.47-39.48,5.2
		c-16.01,2.11-32.03,4.19-48.04,6.31c-12.68,1.68-25.36,3.41-38.04,5.1c-16.17,2.16-32.34,4.28-48.51,6.44
		c-9.99,1.34-19.96,2.76-29.95,4.06c-9.99,1.3-19.94,2.86-29.98,3.77c-7,0.64-13.93,2.01-20.9,2.97
		c-13.78,1.88-27.58,3.7-41.37,5.54c-10.3,1.38-20.61,2.74-30.91,4.12c-15.85,2.13-31.7,4.28-47.55,6.42
		c-12.84,1.74-25.67,3.51-38.51,5.21c-15.85,2.11-31.71,4.17-47.57,6.25c-13.16,1.73-26.32,3.46-39.48,5.18
		c-13.8,1.81-27.59,3.6-41.39,5.43c-12.84,1.71-25.67,3.48-38.52,5.18c-12.37,1.63-24.74,3.2-37.11,4.79
		c-0.31,0.04-0.65,0.08-0.95,0.02c-0.29-0.06-0.74-0.21-0.8-0.41c-0.11-0.41-0.18-1,0.04-1.3c1.85-2.51,4.59-3.35,7.49-3.8
		c4.43-0.69,8.86-1.32,13.29-1.96c24.22-3.48,48.44-6.96,72.66-10.44c25.33-3.64,50.66-7.27,75.98-10.95
		c18.36-2.67,36.71-5.43,55.06-8.11c16.46-2.4,32.93-4.73,49.39-7.12c13.93-2.02,27.84-4.14,41.78-6.11
		c10.77-1.52,21.57-2.8,32.33-4.32c6.97-0.98,13.89-2.26,20.85-3.28c19.78-2.88,39.57-5.65,59.35-8.54c20.57-3,41.13-6.11,61.7-9.11
		c17.72-2.59,35.46-5.1,53.19-7.65c10.29-1.48,20.57-2.98,30.86-4.42c12.98-1.83,25.97-3.57,38.95-5.44
		c14.25-2.05,28.48-4.21,42.72-6.32C3254.88,1231.93,3256.14,1231.77,3256.7,1231.7z"/>
	<path d="M2581.41,941.93c1.1,20.73,0.56,42.32,0.68,63.92c0.01,2.24,0.13,4.49-0.48,6.68c-0.54,1.92-1.96,3.09-3.76,3.16
		c-1.37,0.05-2.57-0.44-3.38-1.51c-1.15-1.53-2.21-3.13-3.2-4.77c-13.45-22.34-26.87-44.7-40.32-67.04
		c-5.37-8.91-10.81-17.76-16.22-26.64c-0.41-0.68-0.84-1.37-1.14-2.1c-0.89-2.1-0.6-3.65,1.21-5.14c1.35-1.11,2.86-2.05,4.37-2.93
		c9.55-5.53,19.12-11.04,28.69-16.53c9.44-5.41,18.72-11.09,27.76-17.14c1.19-0.79,2.45-1.49,3.76-2.07
		c0.58-0.26,1.29,0.11,1.55,0.78c0.23,0.58,0.36,1.23,0.39,1.86c0.07,1.6,0.08,3.2,0.08,4.8
		C2581.41,898.52,2581.41,919.8,2581.41,941.93z"/>
	<path d="M2587.71,941.49c0-22.07,0-44.15,0.01-66.22c0-1.75-0.18-3.52,0.38-5.24c0.24-0.75,1.27-1.26,1.93-0.88
		c0.68,0.4,1.36,0.83,1.95,1.36c8.95,8.08,18.89,14.76,29.15,21.01c7.24,4.41,14.46,8.85,21.7,13.25c1.36,0.83,2.82,1.5,4.23,2.26
		c1.27,0.68,2.57,1.3,3.79,2.07c4.07,2.58,4.78,4.89,2.71,9.28c-1.02,2.16-2.24,4.24-3.48,6.29
		c-12.52,20.66-25.11,41.26-37.56,61.96c-4.78,7.95-9.22,16.1-13.81,24.16c-0.87,1.53-1.66,3.11-2.94,4.36
		c-1.37,1.32-2.95,1.91-4.82,1.24c-1.82-0.65-2.93-1.95-3.08-3.89c-0.14-1.75-0.16-3.51-0.16-5.27
		C2587.71,985.32,2587.71,963.4,2587.71,941.49C2587.71,941.49,2587.71,941.49,2587.71,941.49z"/>
	<path d="M2639.01,1282.78c2.99-2.06,6.14-3.83,9.59-5.12c5.54-2.08,11.05-4.24,16.59-6.32c2.54-0.96,5.1-1.9,7.7-2.69
		c24.84-7.54,50.19-12.81,75.81-16.87c18.64-2.95,37.35-5.43,56.11-7.44c11.45-1.23,22.92-2.16,34.39-3.22
		c12.58-1.16,25.15-2.35,37.73-3.47c8.92-0.79,17.85-1.46,26.77-2.25c9.08-0.8,18.15-1.68,27.23-2.5c4.14-0.37,8.28-0.75,12.43-1
		c13.89-0.84,27.71-2.47,41.55-3.85c10.18-1.01,20.37-1.95,30.55-2.99c15.75-1.61,31.46-3.54,47.1-6.01
		c20.22-3.2,40.44-6.4,60.5-10.54c23.53-4.85,46.75-10.81,69.25-19.35c8.38-3.18,16.59-6.76,24.64-10.71
		c1.58-0.77,3.17-1.55,4.84-2.09c2.22-0.73,3.68-0.05,4.71,2.09c1.12,2.32,1.82,4.78,1.97,7.37c0.13,2.32-0.79,4.08-2.92,5.03
		c-1.6,0.72-3.26,1.33-4.93,1.86c-15.71,4.97-31.59,9.36-47.57,13.37c-29.03,7.28-58.35,13.17-87.89,17.93
		c-15.31,2.47-30.68,4.62-46.04,6.74c-6.81,0.94-13.68,1.38-20.51,2.15c-9.22,1.04-18.41,2.24-27.63,3.29
		c-11.12,1.27-22.18,3.02-33.39,3.46c-3.03,0.12-6.03,0.73-9.06,0.97c-12.91,1.04-25.82,2.05-38.73,3.03
		c-13.07,0.99-26.15,1.93-39.22,2.9c-12.92,0.96-25.83,1.86-38.74,2.91c-14.82,1.2-29.65,2.38-44.44,3.86
		c-18.93,1.89-37.88,3.66-56.7,6.53c-11.07,1.69-22.02,4.02-32.98,6.33c-10.96,2.3-21.83,4.93-32.59,8.05
		c-4.62,1.34-9.04,3.21-13.5,4.97c-4,1.58-8.05,3.02-12.07,4.52C2639.35,1283.41,2639.18,1283.1,2639.01,1282.78z"/>
	<path d="M2505.86,914.79c0.55,0.35,1.21,0.58,1.58,1.04c0.88,1.13,1.68,2.33,2.42,3.56c15.37,25.45,30.73,50.9,46.09,76.35
		c3.72,6.16,7.45,12.3,11.17,18.46c0.58,0.96,1.21,1.9,1.64,2.92c0.82,1.95-0.64,4-2.79,3.88c-0.92-0.05-1.89-0.36-2.71-0.8
		c-1.4-0.76-2.71-1.69-4.04-2.58c-30.18-20.14-60.35-40.29-90.52-60.44c-1.19-0.8-2.43-1.57-3.51-2.5
		c-2.13-1.84-2.27-3.53-0.58-5.86c0.56-0.77,1.23-1.47,1.9-2.16c10.67-10.85,22.03-20.89,34.63-29.47c0.92-0.63,1.87-1.24,2.85-1.77
		C2504.53,915.12,2505.17,915.01,2505.86,914.79z"/>
	<path d="M2603.55,1022.8c-1.92-0.07-3.24-1.64-2.75-3.04c0.52-1.49,1.29-2.92,2.1-4.28c5.94-10.05,11.92-20.09,17.88-30.13
		c12.09-20.35,24.18-40.71,36.28-61.06c0.82-1.37,1.6-2.78,2.54-4.07c1.85-2.54,3.32-2.84,6.17-1.29c1.12,0.61,2.18,1.34,3.22,2.08
		c6.24,4.49,12.26,9.24,17.89,14.48c5.27,4.9,10.59,9.76,15.57,14.96c4.4,4.59,4.32,5.52-1.04,9.03
		c-30.77,20.17-61.56,40.31-92.35,60.46c-1.2,0.79-2.43,1.56-3.7,2.23C2604.68,1022.54,2603.89,1022.69,2603.55,1022.8z"/>
	<path d="M2353.45,1066.7c0-3.84-0.07-7.67,0.02-11.51c0.08-3.36,1.2-4.62,4.59-4.89c2.54-0.2,5.12-0.16,7.66,0.02
		c2.76,0.2,3.52,1.26,3.37,4.13c-0.05,0.95-0.19,1.91-0.39,2.85c-1.53,7.19-3.08,14.38-4.64,21.56c-0.17,0.78-0.41,1.55-0.71,2.28
		c-0.6,1.47-1.73,2.25-3.32,2.35c-0.32,0.02-0.64,0.03-0.96,0.02c-4.35-0.04-5.41-0.99-5.52-5.31c-0.1-3.83-0.02-7.67-0.02-11.51
		C2353.5,1066.7,2353.47,1066.7,2353.45,1066.7z"/>
	<path d="M2813.62,1067.97c0,2.71,0.01,5.43-0.01,8.14c-0.01,1.12,0,2.24-0.13,3.35c-0.29,2.61-1.3,3.73-3.38,3.9
		c-2.48,0.21-3.98-0.69-4.8-3.02c-0.37-1.05-0.57-2.16-0.79-3.25c-1.4-6.88-2.88-13.74-4.76-20.51c-1.46-5.28-0.67-6.27,4.76-6.41
		c1.43-0.04,2.88-0.01,4.3,0.13c2.32,0.23,3.84,1.54,4.3,3.84c0.28,1.4,0.43,2.84,0.46,4.27c0.07,3.19,0.02,6.38,0.02,9.57
		C2813.61,1067.97,2813.62,1067.97,2813.62,1067.97z"/>
	<path d="M2784.84,638.68c0-3.35-0.01-6.7,0.01-10.06c0.01-1.12,0.02-2.24,0.16-3.34c0.28-2.16,1.42-2.82,3.31-1.77
		c2.09,1.16,4.15,2.41,6.07,3.82c10.58,7.8,18.43,17.59,21.87,30.51c0.41,1.53,0.69,3.11,0.87,4.69c0.13,1.18-0.91,2.18-2.1,2.08
		c-1.1-0.09-2.21-0.3-3.28-0.59c-7.07-1.96-14.14-3.96-21.2-5.95c-0.77-0.22-1.53-0.45-2.29-0.71c-1.84-0.63-2.9-1.95-3.12-3.86
		c-0.17-1.42-0.26-2.86-0.28-4.29C2784.81,645.7,2784.84,642.19,2784.84,638.68C2784.84,638.68,2784.84,638.68,2784.84,638.68z"/>
	<path d="M2404.68,639.82c0,4.14,0.08,8.29-0.02,12.43c-0.09,3.85-0.7,4.74-4.39,5.82c-7.65,2.23-15.35,4.29-23.03,6.41
		c-0.46,0.13-0.94,0.18-1.41,0.22c-1.71,0.12-2.84-0.76-2.87-2.43c-0.02-1.26,0.15-2.54,0.4-3.78c0.67-3.3,1.9-6.43,3.51-9.38
		c4.72-8.67,11.03-15.97,19.1-21.71c1.82-1.3,3.71-2.49,5.85-3.2c1.45-0.49,2.52,0.19,2.72,1.75c0.14,1.1,0.16,2.22,0.17,3.34
		c0.02,3.51,0.01,7.01,0.01,10.52C2404.69,639.82,2404.69,639.82,2404.68,639.82z"/>
</g>
</svg>
